<?xml version="1.0" encoding="UTF-8" standalone="no"?>
<svg
   xmlns:dc="http://purl.org/dc/elements/1.1/"
   xmlns:cc="http://creativecommons.org/ns#"
   xmlns:rdf="http://www.w3.org/1999/02/22-rdf-syntax-ns#"
   xmlns:svg="http://www.w3.org/2000/svg"
   xmlns="http://www.w3.org/2000/svg"
   viewBox="0 0 690.4267 414.78668"
   height="414.78668"
   width="690.4267"
   xml:space="preserve"
   id="svg2"
   version="1.1"><metadata
     id="metadata8"><rdf:RDF><cc:Work
         rdf:about=""><dc:format>image/svg+xml</dc:format><dc:type
           rdf:resource="http://purl.org/dc/dcmitype/StillImage" /></cc:Work></rdf:RDF></metadata><defs
     id="defs6"><clipPath
       id="clipPath126"
       clipPathUnits="userSpaceOnUse"><path
         id="path124"
         d="m 976.207,2504.75 c 0.805,-1.5 1.535,-3.07 2.191,-4.7 0.879,-2.14 1.614,-4.39 2.207,-6.74 1.364,-5.37 1.958,-11.25 1.723,-17.58 -0.176,-4.78 -0.836,-9.6 -1.918,-14.39 -0.742,-3.31 -1.699,-6.6 -2.844,-9.87 -0.906,-2.6 -1.945,-5.18 -3.093,-7.74 -1.051,-2.33 -2.192,-4.64 -3.418,-6.91 -1.16,-2.16 -2.41,-4.28 -3.731,-6.37 -1.277,-2.04 -2.636,-4.04 -4.054,-6 -1.407,-1.95 -2.879,-3.85 -4.407,-5.72 -1.543,-1.87 -3.14,-3.7 -4.8,-5.49 -1.692,-1.82 -3.442,-3.58 -5.25,-5.3 -1.875,-1.77 -3.809,-3.49 -5.79,-5.13 -2.109,-1.74 -4.273,-3.4 -6.492,-4.99 -2.449,-1.75 -4.965,-3.38 -7.527,-4.91 -3.113,-1.84 -6.305,-3.52 -9.563,-5 -4.214,-1.93 -8.543,-3.54 -12.941,-4.79 -4.094,-1.17 -8.094,-1.98 -11.957,-2.46 -15.59,-1.91 -29.227,1.65 -39.285,9.45 l -57.383,46.35 7.199,8.25 c 9.692,-8.2 22.973,-12.75 38.574,-12.49 4.172,0.08 8.524,0.5 13,1.28 44.188,7.66 85.122,48.15 91.094,90.11 0.481,3.35 0.727,6.59 0.742,9.74 l 17.754,-16.09 c 0.953,-0.83 1.86,-1.68 2.727,-2.58 0.883,-0.92 1.726,-1.88 2.543,-2.87 0.847,-1.04 1.644,-2.13 2.398,-3.25 0.824,-1.22 1.586,-2.49 2.301,-3.81 z" /></clipPath><clipPath
       id="clipPath170"
       clipPathUnits="userSpaceOnUse"><path
         id="path168"
         d="m 713.879,1490.39 c 10.777,-8.38 17.078,-22.56 16.18,-40.29 -1.723,-33.93 -29.235,-67.81 -61.336,-75.49 -2.176,-0.53 -4.325,-0.9 -6.418,-1.17 -12.438,-1.52 -23.414,1.46 -31.719,7.91 l -57.434,46.37 5.77,7.54 c 5.586,-4.22 12.488,-7.23 20.508,-8.64 2.156,-0.39 4.402,-0.64 6.718,-0.8 34.184,-2.11 71.766,23.17 83.762,56.31 3.418,9.41 4.399,18.46 3.258,26.6 l 20.711,-18.34 z" /></clipPath><clipPath
       id="clipPath210"
       clipPathUnits="userSpaceOnUse"><path
         id="path208"
         d="m 977.766,1772.11 c 0.933,-1.75 1.789,-3.57 2.55,-5.45 1,-2.49 1.848,-5.08 2.536,-7.78 1.578,-6.22 2.281,-13.04 2.003,-20.34 -0.21,-5.44 -0.937,-10.88 -2.16,-16.25 -0.82,-3.66 -1.875,-7.29 -3.121,-10.87 -1,-2.83 -2.125,-5.64 -3.367,-8.42 -1.113,-2.48 -2.328,-4.94 -3.641,-7.35 -1.222,-2.27 -2.523,-4.51 -3.906,-6.69 -1.324,-2.1 -2.726,-4.16 -4.187,-6.19 -1.438,-1.98 -2.93,-3.93 -4.485,-5.82 -1.554,-1.9 -3.175,-3.74 -4.847,-5.54 -1.684,-1.81 -3.426,-3.58 -5.231,-5.28 -1.851,-1.76 -3.773,-3.46 -5.734,-5.08 -2.082,-1.73 -4.215,-3.36 -6.399,-4.92 -2.394,-1.71 -4.851,-3.32 -7.363,-4.8 -3.086,-1.84 -6.25,-3.5 -9.476,-4.96 -4.958,-2.25 -10.075,-4.07 -15.278,-5.37 -3.242,-0.82 -6.422,-1.42 -9.531,-1.8 -16.496,-2.02 -31.051,1.92 -41.973,10.39 l -52.066,39.95 5.555,7 c 9.14,-7.34 21.082,-11.85 35.023,-12.58 3.238,-0.17 6.59,-0.13 10.043,0.11 44.785,3.14 88.914,41.45 98.289,85.23 2.219,10.24 2.336,19.85 0.633,28.52 l 12.621,-9.66 2.125,-1.74 c 1.059,-0.93 2.09,-1.9 3.078,-2.92 1.012,-1.04 1.981,-2.13 2.898,-3.27 0.965,-1.19 1.891,-2.44 2.758,-3.72 0.942,-1.42 1.825,-2.88 2.653,-4.4 z" /></clipPath><clipPath
       id="clipPath256"
       clipPathUnits="userSpaceOnUse"><path
         id="path254"
         d="m 980.719,1945.81 c -1.328,-2.48 -2.758,-4.92 -4.274,-7.32 -1.457,-2.31 -3.004,-4.59 -4.609,-6.81 -1.586,-2.2 -3.246,-4.35 -4.965,-6.44 -1.719,-2.1 -3.512,-4.15 -5.367,-6.14 -1.891,-2.03 -3.832,-4 -5.844,-5.9 -2.082,-1.96 -4.215,-3.86 -6.422,-5.68 -2.328,-1.93 -4.718,-3.77 -7.16,-5.52 -2.687,-1.91 -5.437,-3.71 -8.25,-5.38 -3.461,-2.06 -7.019,-3.92 -10.648,-5.57 -5.192,-2.37 -10.528,-4.3 -15.969,-5.73 -3.875,-1.01 -7.68,-1.75 -11.395,-2.21 -18.035,-2.21 -33.898,2.02 -45.734,11.22 l -78.703,60.48 3.898,4.8 c 11.012,-9.12 25.735,-14.47 42.969,-14.77 4.067,-0.07 8.274,0.14 12.606,0.66 51.437,6.09 100.617,51.65 109.523,101.58 1.305,7.29 1.676,14.26 1.203,20.82 l 30.508,-23.47 c 14.309,-11.1 22.738,-29.46 21.883,-52.56 -0.356,-9.71 -2.332,-19.49 -5.653,-28.97 -1.074,-3.06 -2.293,-6.1 -3.628,-9.08 -1.215,-2.71 -2.543,-5.39 -3.969,-8.01 z" /></clipPath><clipPath
       id="clipPath306"
       clipPathUnits="userSpaceOnUse"><path
         id="path304"
         d="m 988.066,2268.47 c 1.02,-2.51 1.875,-5.13 2.571,-7.88 1.574,-6.23 2.285,-13.06 2.015,-20.4 -0.207,-5.53 -0.957,-11.1 -2.207,-16.62 -0.867,-3.8 -1.953,-7.58 -3.265,-11.31 -1.043,-2.99 -2.223,-5.94 -3.532,-8.85 -1.187,-2.64 -2.488,-5.26 -3.878,-7.84 -1.317,-2.44 -2.719,-4.84 -4.211,-7.19 -1.442,-2.29 -2.961,-4.54 -4.551,-6.75 -1.57,-2.17 -3.219,-4.3 -4.93,-6.39 -1.723,-2.09 -3.504,-4.14 -5.359,-6.12 -1.875,-2.03 -3.832,-3.99 -5.832,-5.89 -2.078,-1.97 -4.227,-3.87 -6.43,-5.69 -2.328,-1.94 -4.727,-3.79 -7.187,-5.53 -2.707,-1.93 -5.477,-3.74 -8.309,-5.42 -3.465,-2.06 -7.02,-3.92 -10.648,-5.58 -4.954,-2.26 -10.047,-4.12 -15.235,-5.54 -4.195,-1.15 -8.312,-1.96 -12.312,-2.45 -17.664,-2.17 -33.164,1.92 -44.661,10.85 l -56.515,43.3 5.504,6.63 c 10.394,-8.8 24.406,-14.08 40.929,-14.66 4.317,-0.15 8.817,0.02 13.461,0.53 50.262,5.52 98.86,48.9 108.211,96.58 1.426,7.24 1.86,14.16 1.395,20.67 l 8.644,-6.63 2.172,-1.79 c 1.098,-0.95 2.145,-1.94 3.157,-2.98 1.027,-1.07 2.019,-2.18 2.957,-3.34 0.988,-1.21 1.914,-2.47 2.793,-3.79 0.957,-1.41 1.855,-2.89 2.675,-4.43 0.953,-1.76 1.809,-3.59 2.578,-5.49 z" /></clipPath><clipPath
       id="clipPath354"
       clipPathUnits="userSpaceOnUse"><path
         id="path352"
         d="m 1419.79,2568.13 c 0.61,-1.12 1.16,-2.28 1.66,-3.49 0.62,-1.56 1.16,-3.19 1.58,-4.89 0.9,-3.52 1.34,-7.33 1.29,-11.4 -0.04,-3.79 -0.52,-7.6 -1.37,-11.39 -0.52,-2.3 -1.18,-4.58 -1.97,-6.84 -0.64,-1.83 -1.36,-3.64 -2.17,-5.42 -0.72,-1.63 -1.52,-3.23 -2.37,-4.82 -0.82,-1.5 -1.68,-2.98 -2.6,-4.44 -0.9,-1.42 -1.85,-2.81 -2.83,-4.19 -1,-1.36 -2.03,-2.7 -3.1,-4.01 -1.09,-1.33 -2.22,-2.62 -3.39,-3.87 -1.2,-1.3 -2.45,-2.55 -3.72,-3.77 -1.36,-1.27 -2.74,-2.49 -4.16,-3.67 -1.51,-1.27 -3.08,-2.46 -4.69,-3.6 -1.78,-1.28 -3.62,-2.47 -5.49,-3.59 -2.29,-1.36 -4.65,-2.6 -7.05,-3.69 -3.08,-1.41 -6.25,-2.59 -9.49,-3.52 -3.06,-0.87 -6.08,-1.48 -9,-1.85 -11.99,-1.47 -22.54,1.28 -30.27,7.27 l -57.39,46.39 7.28,8.31 c 7.48,-7.44 18.41,-11.76 31.43,-11.76 3.17,0.01 6.47,0.26 9.87,0.8 32.84,5.21 62.92,34.06 66.96,64.33 l 0.31,2.8 21.83,-19.22 c 1.23,-0.95 2.39,-1.99 3.47,-3.12 l 1.9,-2.13 1.8,-2.42 c 0.6,-0.89 1.16,-1.82 1.68,-2.8 z" /></clipPath><clipPath
       id="clipPath392"
       clipPathUnits="userSpaceOnUse"><path
         id="path390"
         d="m 1166.88,2728.94 c -0.87,-1.62 -1.81,-3.22 -2.81,-4.79 -0.96,-1.54 -1.99,-3.05 -3.06,-4.53 -1.07,-1.48 -2.18,-2.93 -3.35,-4.35 -1.17,-1.43 -2.4,-2.84 -3.67,-4.2 -1.29,-1.39 -2.64,-2.75 -4.03,-4.07 -1.46,-1.38 -2.95,-2.7 -4.49,-3.97 -1.64,-1.36 -3.31,-2.65 -5.05,-3.88 -1.91,-1.37 -3.89,-2.66 -5.91,-3.85 -2.43,-1.46 -4.94,-2.76 -7.49,-3.93 -3.1,-1.42 -6.28,-2.62 -9.52,-3.58 -3.48,-1.04 -6.87,-1.74 -10.13,-2.15 -12.25,-1.5 -22.95,1.26 -30.77,7.32 l -43.27,32.95 1.31,1.5 c 7.94,-6.62 18.83,-10.41 31.65,-10.41 3.8,0 7.78,0.34 11.89,1.03 36.9,6.19 70.95,38.76 76.02,72.64 0.23,1.56 0.39,3.1 0.49,4.61 l 7.02,-5.36 1.44,-1.18 2.06,-1.95 1.93,-2.17 1.81,-2.45 c 0.62,-0.92 1.19,-1.87 1.71,-2.85 0.61,-1.13 1.17,-2.3 1.67,-3.53 0.65,-1.61 1.2,-3.3 1.65,-5.06 0.95,-3.79 1.42,-7.91 1.31,-12.33 -0.1,-3.71 -0.58,-7.45 -1.43,-11.18 -1,-4.42 -2.49,-8.81 -4.42,-13.11 -0.78,-1.74 -1.64,-3.47 -2.56,-5.17 z" /></clipPath><clipPath
       id="clipPath428"
       clipPathUnits="userSpaceOnUse"><path
         id="path426"
         d="m 483.254,1713.1 c 9.566,-7.16 15.187,-19.59 14.418,-35.34 -1.387,-30.16 -25.656,-60.96 -54.086,-68.59 -2.16,-0.6 -4.285,-1.03 -6.363,-1.32 -10.754,-1.51 -20.274,0.88 -27.52,6.31 l -57.773,46.01 2.75,3.68 c 5.933,-4.76 13.601,-7.8 22.601,-8.59 2.254,-0.19 4.606,-0.25 7.028,-0.16 31.843,1.15 64.929,27.71 73.738,59.18 1.891,6.68 2.527,13.04 2.066,18.9 l 23.141,-20.08 z" /></clipPath><clipPath
       id="clipPath538"
       clipPathUnits="userSpaceOnUse"><path
         id="path536"
         d="m 1418.11,2570.93 1.68,-2.8 c -0.52,0.98 -1.08,1.91 -1.68,2.8 z" /></clipPath></defs><g
     transform="matrix(1.3333333,0,0,-1.3333333,0,414.78667)"
     id="g10"><g
       transform="scale(0.1)"
       id="g12"><path
         id="path14"
         style="fill:#0f80cc;fill-opacity:1;fill-rule:evenodd;stroke:none"
         d="m 1991.14,838.191 c -7.07,-1.429 -52.31,-12.742 -101.8,-12.742 -48.07,0 -117.36,11.313 -117.36,97.563 0,79.158 41.02,89.058 91.91,97.538 l 127.25,19.78 V 838.191 Z m 241.75,5.641 v 385.958 c 0,80.6 -24.03,144.22 -93.31,182.38 -49.48,28.28 -120.18,42.42 -219.13,42.42 -155.52,0 -292.66,-40.99 -319.52,-52.3 -8.5,-4.24 -18.38,-9.91 -18.38,-22.64 0,-2.81 1.41,-5.64 1.41,-8.48 l 24.03,-106.01 c 1.42,-9.9 7.07,-12.74 15.55,-12.74 2.83,0 7.08,0 11.3,1.41 31.12,8.48 142.82,38.18 230.47,38.18 42.41,0 74.92,-4.25 93.3,-12.73 25.46,-12.74 29.69,-35.33 29.69,-70.68 v -29.69 l -240.35,-38.19 c -93.3,-14.14 -213.48,-42.42 -213.48,-220.54 0,-219.141 175.32,-244.59 350.62,-244.59 84.85,0 149.87,5.64 206.43,18.379 96.13,22.633 141.37,39.59 141.37,149.863 v 0" /><path
         id="path16"
         style="fill:#0f80cc;fill-opacity:1;fill-rule:evenodd;stroke:none"
         d="m 2543.36,1290.82 c 7.06,1.55 52.09,13.64 101.57,14.49 48.06,0.84 117.54,-9.25 119.04,-95.48 1.38,-79.16 -39.45,-89.79 -90.18,-99.14 l -126.9,-22 -3.53,202.13 z m -241.6,-9.88 6.74,-385.901 c 1.4,-80.578 26.54,-143.769 96.47,-180.719 49.97,-27.422 120.9,-40.308 219.83,-38.582 155.5,2.723 291.91,46.102 318.57,57.864 8.42,4.39 18.2,10.23 17.98,22.937 -0.05,2.84 -1.51,5.633 -1.56,8.461 l -25.87,105.59 c -1.6,9.879 -7.3,12.621 -15.78,12.461 -2.83,-0.039 -7.08,-0.121 -11.27,-1.602 -30.96,-9.027 -142.12,-40.668 -229.77,-42.207 -42.4,-0.722 -74.98,2.949 -93.51,11.11 -25.67,12.289 -30.29,34.808 -30.91,70.16 l -0.52,29.687 239.64,42.36 c 93.04,15.761 212.71,46.131 209.61,224.241 -3.83,219.1 -179.57,241.5 -354.85,238.44 -84.83,-1.49 -149.74,-8.27 -206.08,-21.98 -95.71,-24.31 -140.65,-42.05 -138.72,-152.32 v 0" /><path
         id="path18"
         style="fill:#0f80cc;fill-opacity:1;fill-rule:evenodd;stroke:none"
         d="m 3327.29,1549.3 v 164.01 c 0,31.1 -14.13,42.41 -43.8,42.41 h -155.52 c -29.71,0 -43.84,-11.31 -43.84,-42.41 V 1549.3 c 0,-31.09 14.13,-42.4 43.84,-42.4 h 155.52 c 29.67,0 43.8,11.31 43.8,42.4 z m 1.43,-835.55 v 677.21 c 0,12.73 -9.9,21.21 -22.63,21.21 h -199.33 c -14.15,0 -24.05,-8.48 -24.05,-21.21 V 713.75 c 0,-12.73 9.9,-21.211 24.05,-21.211 h 199.33 c 12.73,0 22.63,8.481 22.63,21.211 v 0" /><path
         id="path20"
         style="fill:#0f80cc;fill-opacity:1;fill-rule:nonzero;stroke:none"
         d="m 4038.7,922.992 c 0,176.718 -106.03,210.638 -206.41,229.018 -67.87,12.74 -128.67,15.57 -128.67,80.61 0,56.54 62.23,63.61 103.22,63.61 72.11,0 149.86,-16.97 162.58,-19.8 h 5.66 c 9.9,0 19.8,4.26 21.21,15.56 l 18.38,100.38 v 5.64 c 0,8.52 -4.25,18.38 -15.56,22.64 -31.1,8.47 -120.16,32.52 -230.44,32.52 -124.41,0 -311.03,-21.21 -311.03,-237.52 0,-200.77 138.53,-217.72 237.51,-236.099 65.05,-12.731 96.13,-19.801 96.13,-76.34 0,-55.141 -52.3,-69.281 -98.96,-69.281 -80.59,0 -180.97,26.851 -202.17,31.09 -2.84,0 -4.24,1.429 -7.06,1.429 -7.07,0 -14.15,-4.258 -16.98,-19.808 l -16.96,-98.961 c -1.42,-4.239 -1.42,-7.071 -1.42,-9.899 0,-16.961 11.3,-19.789 15.55,-22.601 28.29,-11.328 144.22,-39.59 264.38,-39.59 176.72,0 311.04,62.191 311.04,247.402 v 0" /><path
         id="path22"
         style="fill:#0f80cc;fill-opacity:1;fill-rule:nonzero;stroke:none"
         d="m 4591.86,743.441 -19.81,101.801 c -1.4,9.899 -4.23,18.379 -16.95,18.379 -1.43,0 -2.82,-1.43 -5.66,-1.43 -19.8,-2.832 -50.9,-8.48 -91.89,-8.48 -72.12,0 -84.83,33.93 -84.83,83.418 v 323.751 h 175.3 c 12.73,0 22.63,8.5 22.63,21.23 v 131.47 c 0,12.71 -9.9,21.21 -22.63,21.21 h -175.3 v 224.8 c 0,18.38 -9.9,26.86 -25.45,26.86 -2.83,0 -5.66,-1.42 -8.48,-1.42 l -183.81,-31.11 c -21.2,-2.83 -28.27,-15.53 -28.27,-38.17 V 921.582 c 0,-176.73 90.49,-240.352 265.8,-240.352 98.97,0 162.59,21.211 179.54,25.43 15.56,4.262 21.21,12.738 21.21,25.469 0,2.832 0,7.07 -1.4,11.312 v 0" /><path
         id="path24"
         style="fill:#0f80cc;fill-opacity:1;fill-rule:evenodd;stroke:none"
         d="M 1574.04,69.5703 V 231.801 c 0,3.238 -2.92,6.168 -6.17,6.168 h -1.95 c -3.25,0 -6.18,-2.93 -6.18,-6.168 V 69.5703 c 0,-3.2617 2.93,-6.1719 6.18,-6.1719 h 1.95 c 3.25,0 6.17,2.9102 6.17,6.1719 z m 0,206.7617 v 24.039 c 0,3.258 -2.92,6.188 -6.17,6.188 h -1.95 c -3.25,0 -6.18,-2.93 -6.18,-6.188 v -24.039 c 0,-3.57 2.93,-6.191 6.18,-6.191 h 1.95 c 3.25,0 6.17,2.621 6.17,6.191 v 0" /><path
         id="path26"
         style="fill:#0f80cc;fill-opacity:1;fill-rule:evenodd;stroke:none"
         d="M 1750.94,69.5703 V 177.5 c 0,45.18 -26.01,62.09 -57.22,62.09 -16.9,0 -35.43,-5.192 -52.34,-13.32 v 5.199 c 0,3.57 -2.28,6.5 -5.85,6.5 h -2.6 c -3.58,0 -5.85,-2.93 -5.85,-6.5 V 69.5703 c 0,-3.2617 2.92,-6.1719 6.18,-6.1719 h 1.95 c 3.24,0 6.17,2.9102 6.17,6.1719 V 213.582 c 16.26,7.809 34.78,13.34 51.37,13.34 24.38,0 43.88,-12.371 43.88,-49.422 V 69.5703 c 0,-3.2617 2.6,-6.1719 5.86,-6.1719 h 2.28 c 3.56,0 6.17,2.9102 6.17,6.1719 v 0" /><path
         id="path28"
         style="fill:#0f80cc;fill-opacity:1;fill-rule:nonzero;stroke:none"
         d="m 1904.82,106.621 c 0,21.469 -14.3,32.188 -41.28,47.149 l -21.78,12.031 c -19.84,11.039 -31.54,19.488 -31.54,33.808 0,23.071 15.93,27.313 36.74,27.313 17.88,0 36.73,-2.621 45.18,-3.582 0.33,0 0.66,0 0.99,0 3.24,0 5.84,1.289 5.84,5.199 v 2.59 c 0,2.93 -2.27,4.891 -6.83,5.531 -11.05,1.309 -23.08,2.93 -46.49,2.93 -25.67,0 -49.73,-9.758 -49.73,-39.981 0,-22.109 14.95,-32.847 39.33,-46.168 l 20.81,-11.371 c 27.31,-14.961 34.46,-22.109 34.46,-35.449 0,-26.3319 -17.88,-32.4999 -41.29,-32.4999 -13.33,0 -32.18,2.5977 -47.78,5.1992 -0.65,0 -1.31,0 -1.96,0 -2.92,0 -5.2,-1.3086 -5.2,-4.5508 v -3.5781 c 0,-2.9297 2.6,-4.2226 7.16,-5.1914 11.7,-2.2891 32.5,-4.5508 47.13,-4.5508 30.23,0 56.24,10.3906 56.24,45.1718 v 0" /><path
         id="path30"
         style="fill:#0f80cc;fill-opacity:1;fill-rule:nonzero;stroke:none"
         d="m 2030.69,67.6211 v 1.9492 c 0,2.9297 -1.95,4.5508 -6.82,4.5508 h -15.61 c -14.3,0 -22.43,2.9297 -22.43,22.418 V 224.629 h 38.69 c 3.57,0 6.17,1.953 6.17,5.203 v 3.258 c 0,3.242 -2.6,4.879 -6.17,4.879 h -38.69 v 33.48 c 0,3.242 -1.95,6.172 -5.2,6.172 h -3.57 c -3.58,0 -5.53,-2.93 -5.53,-6.172 v -33.48 h -32.18 c -3.58,0 -6.19,-1.637 -6.19,-4.879 v -3.258 c 0,-3.25 2.61,-5.203 6.19,-5.203 h 32.18 V 96.5391 c 0,-27.9375 13.65,-35.0899 36.73,-35.0899 5.52,0 12.03,0.3125 16.91,0.9492 4.55,0.6719 5.52,2.6211 5.52,5.2227 v 0" /><path
         id="path32"
         style="fill:#0f80cc;fill-opacity:1;fill-rule:evenodd;stroke:none"
         d="M 2088.3,69.5703 V 231.801 c 0,3.238 -2.93,6.168 -6.18,6.168 h -1.95 c -3.25,0 -6.18,-2.93 -6.18,-6.168 V 69.5703 c 0,-3.2617 2.93,-6.1719 6.18,-6.1719 h 1.95 c 3.25,0 6.18,2.9102 6.18,6.1719 z m 0,206.7617 v 24.039 c 0,3.258 -2.93,6.188 -6.18,6.188 h -1.95 c -3.25,0 -6.18,-2.93 -6.18,-6.188 v -24.039 c 0,-3.57 2.93,-6.191 6.18,-6.191 h 1.95 c 3.25,0 6.18,2.621 6.18,6.191 v 0" /><path
         id="path34"
         style="fill:#0f80cc;fill-opacity:1;fill-rule:nonzero;stroke:none"
         d="m 2229.1,67.6211 v 1.9492 c 0,2.9297 -1.95,4.5508 -6.82,4.5508 h -15.61 c -14.3,0 -22.43,2.9297 -22.43,22.418 V 224.629 h 38.68 c 3.58,0 6.18,1.953 6.18,5.203 v 3.258 c 0,3.242 -2.6,4.879 -6.18,4.879 h -38.68 v 33.48 c 0,3.242 -1.95,6.172 -5.2,6.172 h -3.58 c -3.58,0 -5.52,-2.93 -5.52,-6.172 v -33.48 h -32.19 c -3.57,0 -6.18,-1.637 -6.18,-4.879 v -3.258 c 0,-3.25 2.61,-5.203 6.18,-5.203 h 32.19 V 96.5391 c 0,-27.9375 13.65,-35.0899 36.73,-35.0899 5.53,0 12.03,0.3125 16.9,0.9492 4.56,0.6719 5.53,2.6211 5.53,5.2227 v 0" /><path
         id="path36"
         style="fill:#0f80cc;fill-opacity:1;fill-rule:evenodd;stroke:none"
         d="M 2393.01,69.8789 V 231.801 c 0,3.238 -2.93,6.168 -6.17,6.168 h -1.96 c -3.25,0 -6.17,-2.93 -6.17,-6.168 V 87.7813 c -16.26,-7.4922 -34.78,-13.3399 -51.37,-13.3399 -0.32,0 -0.32,0 -0.65,0 -24.05,0 -43.23,12.6875 -43.23,49.4296 v 107.93 c 0,3.238 -2.61,6.168 -5.86,6.168 h -2.27 c -3.58,0 -6.18,-2.93 -6.18,-6.168 v -107.93 c 0,-44.8788 26.01,-62.1093 57.22,-62.1093 16.9,0 35.43,5.2071 52.34,13.3399 v -5.2227 c 0,-3.5703 2.28,-6.4805 5.85,-6.4805 h 2.6 c 3.57,0 5.85,2.9102 5.85,6.4805 v 0" /><path
         id="path38"
         style="fill:#0f80cc;fill-opacity:1;fill-rule:nonzero;stroke:none"
         d="m 2530.64,67.6211 v 1.9492 c 0,2.9297 -1.95,4.5508 -6.83,4.5508 h -15.6 c -14.3,0 -22.43,2.9297 -22.43,22.418 V 224.629 h 38.69 c 3.57,0 6.17,1.953 6.17,5.203 v 3.258 c 0,3.242 -2.6,4.879 -6.17,4.879 h -38.69 v 33.48 c 0,3.242 -1.95,6.172 -5.2,6.172 H 2477 c -3.57,0 -5.53,-2.93 -5.53,-6.172 v -33.48 h -32.18 c -3.57,0 -6.17,-1.637 -6.17,-4.879 v -3.258 c 0,-3.25 2.6,-5.203 6.17,-5.203 h 32.18 V 96.5391 c 0,-27.9375 13.66,-35.0899 36.74,-35.0899 5.53,0 12.03,0.3125 16.91,0.9492 4.55,0.6719 5.52,2.6211 5.52,5.2227 v 0" /><path
         id="path40"
         style="fill:#0f80cc;fill-opacity:1;fill-rule:evenodd;stroke:none"
         d="m 2678.95,139.141 c 0,-40.0004 -14.62,-65.0199 -52.66,-65.0199 -38.04,0 -52.67,25.0195 -52.67,65.0199 v 22.757 c 0,39.981 14.63,65.024 52.67,65.024 38.04,0 52.66,-25.043 52.66,-65.024 v -22.757 z m 14.3,0 v 22.757 c 0,49.082 -22.43,77.692 -66.96,77.692 -44.55,0 -66.98,-28.61 -66.98,-77.692 v -22.757 c 0,-49.1019 22.43,-77.6918 66.98,-77.6918 44.53,0 66.96,28.5899 66.96,77.6918 v 0" /><path
         id="path42"
         style="fill:#0f80cc;fill-opacity:1;fill-rule:nonzero;stroke:none"
         d="m 2916.43,106.621 c 0,21.469 -14.31,32.188 -41.29,47.149 l -21.78,12.031 c -19.83,11.039 -31.53,19.488 -31.53,33.808 0,23.071 15.92,27.313 36.73,27.313 17.88,0 36.73,-2.621 45.19,-3.582 0.32,0 0.64,0 0.98,0 3.24,0 5.84,1.289 5.84,5.199 v 2.59 c 0,2.93 -2.27,4.891 -6.82,5.531 -11.05,1.309 -23.09,2.93 -46.49,2.93 -25.69,0 -49.74,-9.758 -49.74,-39.981 0,-22.109 14.95,-32.847 39.34,-46.168 l 20.81,-11.371 c 27.3,-14.961 34.45,-22.109 34.45,-35.449 0,-26.3319 -17.88,-32.4999 -41.29,-32.4999 -13.33,0 -32.18,2.5977 -47.78,5.1992 -0.65,0 -1.31,0 -1.96,0 -2.92,0 -5.19,-1.3086 -5.19,-4.5508 v -3.5781 c 0,-2.9297 2.6,-4.2226 7.15,-5.1914 11.7,-2.2891 32.51,-4.5508 47.13,-4.5508 30.24,0 56.25,10.3906 56.25,45.1718 v 0" /><path
         id="path44"
         style="fill:#0f80cc;fill-opacity:1;fill-rule:evenodd;stroke:none"
         d="M 3083.57,69.8789 V 231.801 c 0,3.238 -2.92,6.168 -6.17,6.168 h -1.95 c -3.25,0 -6.17,-2.93 -6.17,-6.168 V 87.7813 c -16.26,-7.4922 -34.79,-13.3399 -51.37,-13.3399 -0.32,0 -0.32,0 -0.65,0 -24.06,0 -43.24,12.6875 -43.24,49.4296 v 107.93 c 0,3.238 -2.59,6.168 -5.86,6.168 h -2.26 c -3.59,0 -6.18,-2.93 -6.18,-6.168 v -107.93 c 0,-44.8788 26,-62.1093 57.21,-62.1093 16.91,0 35.43,5.2071 52.35,13.3399 v -5.2227 c 0,-3.5703 2.27,-6.4805 5.85,-6.4805 h 2.59 c 3.58,0 5.85,2.9102 5.85,6.4805 v 0" /><path
         id="path46"
         style="fill:#0f80cc;fill-opacity:1;fill-rule:evenodd;stroke:none"
         d="m 3242.33,139.141 c 0,-42.9105 -13.64,-65.0199 -49.4,-65.0199 -12.68,0 -32.84,1.6172 -45.2,4.2187 V 222.68 c 11.71,1.949 29.59,4.242 45.2,4.242 36.41,0 49.4,-24.402 49.4,-66.332 v -21.449 z m 14.32,0 v 21.449 c 0,46.808 -18.86,79 -63.72,79 -18.54,0 -40.31,-3.258 -54.62,-6.168 -3.91,-0.981 -4.87,-2.293 -4.87,-6.192 V 6.17188 C 3133.44,2.92969 3135.71,0 3138.96,0 h 3.25 c 3.25,0 5.52,2.92969 5.52,6.17188 V 66.3086 c 13.01,-2.9102 32.52,-4.8594 45.2,-4.8594 42.26,0 63.72,26.3321 63.72,77.6918 v 0" /><path
         id="path48"
         style="fill:#0f80cc;fill-opacity:1;fill-rule:evenodd;stroke:none"
         d="m 3412.8,160.281 h -101.76 v 1.617 c 0,38.672 15.28,65.024 51.37,65.024 36.73,0 50.39,-23.731 50.39,-64.711 v -1.93 z m 14.3,-6.84 v 8.77 c 0,46.168 -19.83,77.379 -64.69,77.379 -42.92,0 -65.67,-32.828 -65.67,-77.692 V 140.43 c 0,-61.4378 32.83,-78.9808 73.14,-78.9808 14.63,0 33.17,2.2617 48.76,5.5196 4.89,0.9804 6.18,2.6015 6.18,6.1796 v 2.2618 c 0,3.2617 -2.27,4.5507 -4.87,4.5507 -0.65,0 -1.31,-0.3125 -1.95,-0.3125 -15.93,-3.2578 -33.81,-5.5273 -48.12,-5.5273 -32.51,0 -58.84,11.6992 -58.84,66.3089 v 6.84 h 109.88 c 3.26,0 6.18,2.601 6.18,6.171 v 0" /><path
         id="path50"
         style="fill:#0f80cc;fill-opacity:1;fill-rule:evenodd;stroke:none"
         d="m 3540.33,232.109 v 2.602 c 0,3.91 -3.57,4.879 -8.77,4.879 -15.93,0 -28.61,-4.219 -45.19,-14.961 v 6.84 c 0,3.57 -2.28,6.5 -5.85,6.5 h -2.6 c -3.57,0 -5.85,-2.93 -5.85,-6.5 V 69.5703 c 0,-3.2617 2.92,-6.1719 6.18,-6.1719 h 1.95 c 3.25,0 6.17,2.9102 6.17,6.1719 V 211.961 c 19.19,12.031 32.84,14.961 45.19,14.961 5.2,0 8.77,0.969 8.77,5.187 v 0" /><path
         id="path52"
         style="fill:#0f80cc;fill-opacity:1;fill-rule:evenodd;stroke:none"
         d="M 3594.31,69.5703 V 231.801 c 0,3.238 -2.92,6.168 -6.18,6.168 h -1.94 c -3.25,0 -6.18,-2.93 -6.18,-6.168 V 69.5703 c 0,-3.2617 2.93,-6.1719 6.18,-6.1719 h 1.94 c 3.26,0 6.18,2.9102 6.18,6.1719 z m 0,206.7617 v 24.039 c 0,3.258 -2.92,6.188 -6.18,6.188 h -1.94 c -3.25,0 -6.18,-2.93 -6.18,-6.188 v -24.039 c 0,-3.57 2.93,-6.191 6.18,-6.191 h 1.94 c 3.26,0 6.18,2.621 6.18,6.191 v 0" /><path
         id="path54"
         style="fill:#0f80cc;fill-opacity:1;fill-rule:evenodd;stroke:none"
         d="m 3762.1,139.141 c 0,-40.0004 -14.62,-65.0199 -52.66,-65.0199 -38.04,0 -52.66,25.0195 -52.66,65.0199 v 22.757 c 0,39.981 14.62,65.024 52.66,65.024 38.04,0 52.66,-25.043 52.66,-65.024 v -22.757 z m 14.31,0 v 22.757 c 0,49.082 -22.44,77.692 -66.97,77.692 -44.54,0 -66.97,-28.61 -66.97,-77.692 v -22.757 c 0,-49.1019 22.43,-77.6918 66.97,-77.6918 44.53,0 66.97,28.5899 66.97,77.6918 v 0" /><path
         id="path56"
         style="fill:#0f80cc;fill-opacity:1;fill-rule:evenodd;stroke:none"
         d="m 3889.6,232.109 v 2.602 c 0,3.91 -3.57,4.879 -8.77,4.879 -15.94,0 -28.61,-4.219 -45.2,-14.961 v 6.84 c 0,3.57 -2.27,6.5 -5.84,6.5 h -2.6 c -3.58,0 -5.85,-2.93 -5.85,-6.5 V 69.5703 c 0,-3.2617 2.92,-6.1719 6.17,-6.1719 h 1.95 c 3.25,0 6.17,2.9102 6.17,6.1719 V 211.961 c 19.19,12.031 32.85,14.961 45.2,14.961 5.2,0 8.77,0.969 8.77,5.187 v 0" /><path
         id="path58"
         style="fill:#0f80cc;fill-opacity:1;fill-rule:nonzero;stroke:none"
         d="m 4088.02,67.6211 v 1.9492 c 0,2.9297 -1.96,4.5508 -6.83,4.5508 h -15.6 c -14.31,0 -22.44,2.9297 -22.44,22.418 V 224.629 h 38.69 c 3.58,0 6.18,1.953 6.18,5.203 v 3.258 c 0,3.242 -2.6,4.879 -6.18,4.879 h -38.69 v 33.48 c 0,3.242 -1.95,6.172 -5.19,6.172 h -3.58 c -3.58,0 -5.53,-2.93 -5.53,-6.172 v -33.48 h -32.18 c -3.58,0 -6.18,-1.637 -6.18,-4.879 v -3.258 c 0,-3.25 2.6,-5.203 6.18,-5.203 h 32.18 V 96.5391 c 0,-27.9375 13.65,-35.0899 36.74,-35.0899 5.52,0 12.03,0.3125 16.9,0.9492 4.55,0.6719 5.53,2.6211 5.53,5.2227 v 0" /><path
         id="path60"
         style="fill:#0f80cc;fill-opacity:1;fill-rule:evenodd;stroke:none"
         d="m 4221.37,314.031 c 0,1.641 -1.3,2.278 -3.58,2.278 h -8.45 c -3.25,0 -4.55,-1.309 -7.47,-4.879 l -32.51,-41.598 c -0.98,-0.98 -1.3,-2.293 -1.3,-3.273 0,-1.278 0.96,-2.258 2.92,-2.258 h 7.15 c 3.26,0 4.22,1.949 7.15,5.531 l 34.79,41.598 c 0.97,0.968 1.3,1.949 1.3,2.601 z m 9.75,-153.75 h -101.75 v 1.617 c 0,38.672 15.28,65.024 51.36,65.024 36.73,0 50.39,-23.731 50.39,-64.711 v -1.93 z m 14.3,-6.84 v 8.77 c 0,46.168 -19.82,77.379 -64.69,77.379 -42.91,0 -65.67,-32.828 -65.67,-77.692 V 140.43 c 0,-61.4378 32.84,-78.9808 73.14,-78.9808 14.64,0 33.17,2.2617 48.77,5.5196 4.89,0.9804 6.18,2.6015 6.18,6.1796 v 2.2618 c 0,3.2617 -2.28,4.5507 -4.88,4.5507 -0.64,0 -1.3,-0.3125 -1.95,-0.3125 -15.93,-3.2578 -33.81,-5.5273 -48.12,-5.5273 -32.51,0 -58.83,11.6992 -58.83,66.3089 v 6.84 h 109.88 c 3.25,0 6.17,2.601 6.17,6.171 v 0" /><path
         id="path62"
         style="fill:#0f80cc;fill-opacity:1;fill-rule:nonzero;stroke:none"
         d="M 4395.4,70.2188 V 72.5 c 0,3.2383 -2.28,4.5508 -5.2,4.5508 -0.66,0 -0.98,0 -1.64,0 -15.27,-1.9492 -27.94,-2.9297 -38.68,-2.9297 -37.06,0 -50.07,26.6599 -50.07,65.9999 v 21.777 c 0,39.332 13.01,65.024 50.07,65.024 10.74,0 23.41,-0.981 38.68,-2.93 0.66,0 0.98,0 1.64,0 2.92,0 5.2,1.297 5.2,4.547 v 2.262 c 0,3.597 -1.3,5.219 -6.18,5.859 -13.65,1.621 -28.94,2.93 -39.34,2.93 -46.48,0 -64.36,-34.449 -64.36,-77.692 v -21.777 c 0,-42.6015 17.88,-78.6718 64.36,-78.6718 10.4,0 25.69,1.293 39.34,2.9102 4.88,0.6601 6.18,2.2812 6.18,5.8594 v 0" /><path
         id="path64"
         style="fill:#0f80cc;fill-opacity:1;fill-rule:evenodd;stroke:none"
         d="M 4560.58,69.5703 V 177.5 c 0,45.18 -26.01,62.09 -57.22,62.09 -16.9,0 -35.44,-5.192 -52.34,-13.32 v 5.199 c 0,3.57 -2.28,6.5 -5.85,6.5 h -2.6 c -3.59,0 -5.85,-2.93 -5.85,-6.5 V 69.5703 c 0,-3.2617 2.92,-6.1719 6.17,-6.1719 h 1.95 c 3.26,0 6.18,2.9102 6.18,6.1719 V 213.582 c 16.26,7.809 34.78,13.34 51.36,13.34 24.39,0 43.89,-12.371 43.89,-49.422 V 69.5703 c 0,-3.2617 2.61,-6.1719 5.85,-6.1719 h 2.28 c 3.58,0 6.18,2.9102 6.18,6.1719 v 0" /><path
         id="path66"
         style="fill:#0f80cc;fill-opacity:1;fill-rule:evenodd;stroke:none"
         d="M 4627.99,69.5703 V 231.801 c 0,3.238 -2.92,6.168 -6.18,6.168 h -1.95 c -3.25,0 -6.18,-2.93 -6.18,-6.168 V 69.5703 c 0,-3.2617 2.93,-6.1719 6.18,-6.1719 h 1.95 c 3.26,0 6.18,2.9102 6.18,6.1719 z m 0,206.7617 v 24.039 c 0,3.258 -2.92,6.188 -6.18,6.188 h -1.95 c -3.25,0 -6.18,-2.93 -6.18,-6.188 v -24.039 c 0,-3.57 2.93,-6.191 6.18,-6.191 h 1.95 c 3.26,0 6.18,2.621 6.18,6.191 v 0" /><path
         id="path68"
         style="fill:#0f80cc;fill-opacity:1;fill-rule:nonzero;stroke:none"
         d="M 4786.03,70.2188 V 72.5 c 0,3.2383 -2.28,4.5508 -5.21,4.5508 -0.64,0 -0.98,0 -1.62,0 -15.28,-1.9492 -27.96,-2.9297 -38.68,-2.9297 -37.06,0 -50.07,26.6599 -50.07,65.9999 v 21.777 c 0,39.332 13.01,65.024 50.07,65.024 10.72,0 23.4,-0.981 38.68,-2.93 0.64,0 0.98,0 1.62,0 2.93,0 5.21,1.297 5.21,4.547 v 2.262 c 0,3.597 -1.3,5.219 -6.19,5.859 -13.64,1.621 -28.92,2.93 -39.32,2.93 -46.5,0 -64.38,-34.449 -64.38,-77.692 v -21.777 c 0,-42.6015 17.88,-78.6718 64.38,-78.6718 10.4,0 25.68,1.293 39.32,2.9102 4.89,0.6601 6.19,2.2812 6.19,5.8594 v 0" /><path
         id="path70"
         style="fill:#0f80cc;fill-opacity:1;fill-rule:evenodd;stroke:none"
         d="m 4932.35,139.141 c 0,-40.0004 -14.63,-65.0199 -52.66,-65.0199 -38.04,0 -52.67,25.0195 -52.67,65.0199 v 22.757 c 0,39.981 14.63,65.024 52.67,65.024 38.03,0 52.66,-25.043 52.66,-65.024 v -22.757 z m 14.3,0 v 22.757 c 0,49.082 -22.43,77.692 -66.96,77.692 -44.54,0 -66.98,-28.61 -66.98,-77.692 v -22.757 c 0,-49.1019 22.44,-77.6918 66.98,-77.6918 44.53,0 66.96,28.5899 66.96,77.6918 v 0" /><path
         id="path72"
         style="fill:#0f80cc;fill-opacity:1;fill-rule:evenodd;stroke:none"
         d="m 1655.32,362.66 c -21.78,-11.699 -37.39,-16.578 -55.59,-16.578 -19.51,0 -35.44,9.41 -35.44,39.637 v 4.242 c 0,27.641 16.91,37.391 65.99,37.391 h 25.04 V 362.66 Z m 14.3,-20.82 v 109.879 c 0,35.121 -11.38,59.82 -55.26,59.82 -21.46,0 -32.51,-1.297 -46.17,-2.918 -4.87,-0.652 -7.48,-2.269 -7.48,-5.859 v -1.942 c 0,-3.57 3.26,-4.879 6.18,-4.879 0.65,0 0.98,0 1.3,0 15.28,1.618 24.71,2.93 46.17,2.93 31.53,0 40.96,-13.34 40.96,-47.152 V 440.02 h -25.04 c -59.16,0 -80.29,-16.579 -80.29,-50.059 v -4.242 c 0,-40.617 25.36,-52.321 49.74,-52.321 20.15,0 39.33,7.793 55.27,16.563 v -8.121 c 0,-3.578 2.92,-6.508 6.5,-6.508 h 1.62 c 3.57,0 6.5,2.93 6.5,6.508 v 0" /><path
         id="path74"
         style="fill:#0f80cc;fill-opacity:1;fill-rule:nonzero;stroke:none"
         d="m 1823.44,378.582 c 0,21.457 -14.3,32.18 -41.29,47.137 l -21.77,12.043 c -19.84,11.027 -31.54,19.488 -31.54,33.797 0,23.089 15.93,27.312 36.74,27.312 17.87,0 36.73,-2.601 45.18,-3.582 0.33,0 0.66,0 0.98,0 3.25,0 5.85,1.293 5.85,5.203 v 2.598 c 0,2.93 -2.27,4.879 -6.83,5.531 -11.05,1.301 -23.08,2.918 -46.49,2.918 -25.68,0 -49.74,-9.738 -49.74,-39.98 0,-22.098 14.96,-32.848 39.34,-46.168 l 20.81,-11.36 c 27.31,-14.972 34.46,-22.109 34.46,-35.449 0,-26.332 -17.88,-32.5 -41.29,-32.5 -13.33,0 -32.19,2.59 -47.79,5.188 -0.65,0 -1.3,0 -1.95,0 -2.92,0 -5.19,-1.309 -5.19,-4.551 v -3.571 c 0,-2.929 2.59,-4.218 7.14,-5.199 11.71,-2.277 32.51,-4.551 47.14,-4.551 30.24,0 56.24,10.391 56.24,45.184 v 0" /><path
         id="path76"
         style="fill:#0f80cc;fill-opacity:1;fill-rule:nonzero;stroke:none"
         d="m 1970.76,378.582 c 0,21.457 -14.3,32.18 -41.28,47.137 l -21.78,12.043 c -19.84,11.027 -31.54,19.488 -31.54,33.797 0,23.089 15.93,27.312 36.74,27.312 17.88,0 36.73,-2.601 45.19,-3.582 0.32,0 0.65,0 0.97,0 3.25,0 5.85,1.293 5.85,5.203 v 2.598 c 0,2.93 -2.27,4.879 -6.82,5.531 -11.06,1.301 -23.09,2.918 -46.49,2.918 -25.69,0 -49.74,-9.738 -49.74,-39.98 0,-22.098 14.95,-32.848 39.33,-46.168 l 20.81,-11.36 c 27.31,-14.972 34.46,-22.109 34.46,-35.449 0,-26.332 -17.88,-32.5 -41.29,-32.5 -13.33,0 -32.18,2.59 -47.78,5.188 -0.65,0 -1.31,0 -1.96,0 -2.92,0 -5.2,-1.309 -5.2,-4.551 v -3.571 c 0,-2.929 2.6,-4.218 7.16,-5.199 11.7,-2.277 32.5,-4.551 47.13,-4.551 30.24,0 56.24,10.391 56.24,45.184 v 0" /><path
         id="path78"
         style="fill:#0f80cc;fill-opacity:1;fill-rule:evenodd;stroke:none"
         d="m 2128.81,411.102 c 0,-40 -14.63,-65.02 -52.66,-65.02 -38.03,0 -52.67,25.02 -52.67,65.02 v 22.75 c 0,39.98 14.64,65.019 52.67,65.019 38.03,0 52.66,-25.039 52.66,-65.019 v -22.75 z m 14.31,0 v 22.75 c 0,49.078 -22.44,77.687 -66.97,77.687 -44.54,0 -66.97,-28.609 -66.97,-77.687 v -22.75 c 0,-49.114 22.43,-77.704 66.97,-77.704 44.53,0 66.97,28.59 66.97,77.704 v 0" /><path
         id="path80"
         style="fill:#0f80cc;fill-opacity:1;fill-rule:nonzero;stroke:none"
         d="m 2293.05,342.172 v 2.289 c 0,3.238 -2.27,4.551 -5.2,4.551 -0.65,0 -0.97,0 -1.63,0 -15.28,-1.961 -27.95,-2.93 -38.68,-2.93 -37.06,0 -50.06,26.66 -50.06,65.969 v 21.801 c 0,39.339 13,65.019 50.06,65.019 10.73,0 23.4,-0.98 38.68,-2.93 0.66,0 0.98,0 1.63,0 2.93,0 5.2,1.309 5.2,4.551 v 2.27 c 0,3.59 -1.3,5.207 -6.17,5.859 -13.66,1.621 -28.94,2.918 -39.34,2.918 -46.49,0 -64.37,-34.449 -64.37,-77.687 v -21.801 c 0,-42.582 17.88,-78.653 64.37,-78.653 10.4,0 25.68,1.293 39.34,2.934 4.87,0.637 6.17,2.27 6.17,5.84 v 0" /><path
         id="path82"
         style="fill:#0f80cc;fill-opacity:1;fill-rule:evenodd;stroke:none"
         d="M 2351.92,341.531 V 503.75 c 0,3.238 -2.92,6.172 -6.17,6.172 h -1.95 c -3.25,0 -6.18,-2.934 -6.18,-6.172 V 341.531 c 0,-3.269 2.93,-6.199 6.18,-6.199 h 1.95 c 3.25,0 6.17,2.93 6.17,6.199 z m 0,206.75 v 24.071 c 0,3.238 -2.92,6.168 -6.17,6.168 h -1.95 c -3.25,0 -6.18,-2.93 -6.18,-6.168 v -24.071 c 0,-3.57 2.93,-6.172 6.18,-6.172 h 1.95 c 3.25,0 6.17,2.602 6.17,6.172 v 0" /><path
         id="path84"
         style="fill:#0f80cc;fill-opacity:1;fill-rule:evenodd;stroke:none"
         d="m 2503.78,362.66 c -21.77,-11.699 -37.38,-16.578 -55.58,-16.578 -19.51,0 -35.44,9.41 -35.44,39.637 v 4.242 c 0,27.641 16.91,37.391 65.99,37.391 h 25.03 V 362.66 Z m 14.31,-20.82 v 109.879 c 0,35.121 -11.38,59.82 -55.26,59.82 -21.46,0 -32.52,-1.297 -46.17,-2.918 -4.87,-0.652 -7.48,-2.269 -7.48,-5.859 v -1.942 c 0,-3.57 3.26,-4.879 6.19,-4.879 0.65,0 0.97,0 1.29,0 15.28,1.618 24.71,2.93 46.17,2.93 31.53,0 40.95,-13.34 40.95,-47.152 V 440.02 h -25.03 c -59.16,0 -80.29,-16.579 -80.29,-50.059 v -4.242 c 0,-40.617 25.36,-52.321 49.74,-52.321 20.15,0 39.33,7.793 55.26,16.563 v -8.121 c 0,-3.578 2.93,-6.508 6.51,-6.508 h 1.62 c 3.58,0 6.5,2.93 6.5,6.508 v 0" /><path
         id="path86"
         style="fill:#0f80cc;fill-opacity:1;fill-rule:evenodd;stroke:none"
         d="m 2638.75,322.992 c 0,1.617 -1.3,2.27 -3.57,2.27 h -8.45 c -3.25,0 -4.56,-1.293 -7.48,-4.871 l -32.51,-41.621 c -0.65,-0.981 -1.31,-2.258 -1.31,-3.239 0,-1.312 0.99,-2.293 2.93,-2.293 h 7.16 c 3.25,0 4.23,1.961 7.15,5.532 l 34.78,41.621 c 0.98,0.98 1.3,1.961 1.3,2.601 z m 34.14,19.18 v 2.289 c 0,3.238 -2.27,4.551 -5.2,4.551 -0.66,0 -0.98,0 -1.64,0 -15.27,-1.961 -27.95,-2.93 -38.68,-2.93 -37.05,0 -50.06,26.66 -50.06,65.969 v 21.801 c 0,39.339 13.01,65.019 50.06,65.019 10.73,0 23.41,-0.98 38.68,-2.93 0.66,0 0.98,0 1.64,0 2.93,0 5.2,1.309 5.2,4.551 v 2.27 c 0,3.59 -1.3,5.207 -6.18,5.859 -13.65,1.621 -28.93,2.918 -39.34,2.918 -46.48,0 -64.37,-34.449 -64.37,-77.687 v -21.801 c 0,-42.582 17.89,-78.653 64.37,-78.653 10.41,0 25.69,1.293 39.34,2.934 4.88,0.637 6.18,2.27 6.18,5.84 v 0" /><path
         id="path88"
         style="fill:#0f80cc;fill-opacity:1;fill-rule:evenodd;stroke:none"
         d="m 2821.16,569.082 v 8.457 c 0,3.582 -0.65,5.203 -3.57,5.203 h -5.53 c -2.93,0 -3.25,-1.621 -3.25,-5.203 v -8.457 c 0,-13.652 -5.21,-17.223 -13,-17.223 -5.2,0 -10.73,3.903 -15.94,9.102 l -15.6,15.269 c -6.17,5.86 -12.68,8.461 -21.46,8.461 -15.6,0 -25.68,-9.75 -25.68,-29.589 v -8.461 c 0,-3.551 0.65,-5.192 3.57,-5.192 h 5.53 c 2.93,0 3.26,1.641 3.26,5.192 v 8.461 c 0,13.648 5.52,17.25 13.32,17.25 6.51,0 10.41,-3.911 15.61,-9.133 l 15.6,-15.27 c 6.18,-5.84 13.01,-8.461 21.79,-8.461 15.6,0 25.35,9.774 25.35,29.594 z m -8.12,-206.422 c -21.78,-11.699 -37.39,-16.578 -55.6,-16.578 -19.5,0 -35.44,9.41 -35.44,39.637 v 4.242 c 0,27.641 16.92,37.391 66,37.391 h 25.04 V 362.66 Z m 14.3,-20.82 v 109.879 c 0,35.121 -11.38,59.82 -55.27,59.82 -21.45,0 -32.51,-1.297 -46.16,-2.918 -4.87,-0.652 -7.48,-2.269 -7.48,-5.859 v -1.942 c 0,-3.57 3.26,-4.879 6.18,-4.879 0.65,0 0.98,0 1.3,0 15.28,1.618 24.71,2.93 46.16,2.93 31.53,0 40.97,-13.34 40.97,-47.152 V 440.02 H 2788 c -59.16,0 -80.29,-16.579 -80.29,-50.059 v -4.242 c 0,-40.617 25.36,-52.321 49.73,-52.321 20.16,0 39.34,7.793 55.27,16.563 v -8.121 c 0,-3.578 2.92,-6.508 6.5,-6.508 h 1.63 c 3.57,0 6.5,2.93 6.5,6.508 v 0" /><path
         id="path90"
         style="fill:#0f80cc;fill-opacity:1;fill-rule:evenodd;stroke:none"
         d="m 2991.88,411.102 c 0,-40 -14.61,-65.02 -52.66,-65.02 -38.04,0 -52.66,25.02 -52.66,65.02 v 22.75 c 0,39.98 14.62,65.019 52.66,65.019 38.05,0 52.66,-25.039 52.66,-65.019 v -22.75 z m 14.31,0 v 22.75 c 0,49.078 -22.43,77.687 -66.97,77.687 -44.54,0 -66.97,-28.609 -66.97,-77.687 v -22.75 c 0,-49.114 22.43,-77.704 66.97,-77.704 44.54,0 66.97,28.59 66.97,77.704 v 0" /><path
         id="path92"
         style="fill:#0f80cc;fill-opacity:1;fill-rule:evenodd;stroke:none"
         d="m 3229.37,350.289 c -11.71,-1.949 -29.59,-4.207 -45.19,-4.207 -36.42,0 -49.41,24.367 -49.41,66.297 v 21.473 c 0,42.91 13.65,65.019 49.41,65.019 12.67,0 32.83,-1.621 45.19,-4.223 V 350.289 Z m 14.29,-4.551 v 224.973 c 0,3.258 -2.27,6.168 -5.52,6.168 h -3.25 c -3.25,0 -5.52,-2.91 -5.52,-6.168 V 506.66 c -13.01,2.93 -32.52,4.879 -45.19,4.879 -42.27,0 -63.72,-26.32 -63.72,-77.687 v -21.473 c 0,-46.809 18.86,-78.981 63.72,-78.981 18.53,0 40.31,3.243 54.62,6.172 3.89,0.981 4.86,2.27 4.86,6.168 v 0" /><path
         id="path94"
         style="fill:#0f80cc;fill-opacity:1;fill-rule:evenodd;stroke:none"
         d="m 3403.9,411.102 c 0,-40 -14.63,-65.02 -52.67,-65.02 -38.04,0 -52.67,25.02 -52.67,65.02 v 22.75 c 0,39.98 14.63,65.019 52.67,65.019 38.04,0 52.67,-25.039 52.67,-65.019 v -22.75 z m 14.3,0 v 22.75 c 0,49.078 -22.43,77.687 -66.97,77.687 -44.54,0 -66.97,-28.609 -66.97,-77.687 v -22.75 c 0,-49.114 22.43,-77.704 66.97,-77.704 44.54,0 66.97,28.59 66.97,77.704 v 0" /><path
         id="path96"
         style="fill:#0f80cc;fill-opacity:1;fill-rule:nonzero;stroke:none"
         d="m 3562.78,378.582 c 0,21.457 -14.3,32.18 -41.29,47.137 l -21.77,12.043 c -19.84,11.027 -31.54,19.488 -31.54,33.797 0,23.089 15.93,27.312 36.74,27.312 17.87,0 36.73,-2.601 45.19,-3.582 0.32,0 0.64,0 0.97,0 3.25,0 5.84,1.293 5.84,5.203 v 2.598 c 0,2.93 -2.26,4.879 -6.81,5.531 -11.06,1.301 -23.09,2.918 -46.5,2.918 -25.68,0 -49.73,-9.738 -49.73,-39.98 0,-22.098 14.95,-32.848 39.33,-46.168 l 20.81,-11.36 c 27.31,-14.972 34.46,-22.109 34.46,-35.449 0,-26.332 -17.88,-32.5 -41.28,-32.5 -13.34,0 -32.19,2.59 -47.8,5.188 -0.64,0 -1.29,0 -1.95,0 -2.92,0 -5.19,-1.309 -5.19,-4.551 v -3.571 c 0,-2.929 2.59,-4.218 7.14,-5.199 11.71,-2.277 32.51,-4.551 47.14,-4.551 30.24,0 56.24,10.391 56.24,45.184 v 0" /><path
         id="path98"
         style="fill:#0f80cc;fill-opacity:1;fill-rule:evenodd;stroke:none"
         d="m 3782.72,432.23 h -101.75 v 1.622 c 0,38.687 15.27,65.019 51.36,65.019 36.73,0 50.39,-23.73 50.39,-64.691 v -1.95 z m 14.3,-6.839 v 8.789 c 0,46.152 -19.82,77.359 -64.69,77.359 -42.91,0 -65.67,-32.828 -65.67,-77.687 v -21.473 c 0,-61.418 32.84,-78.981 73.14,-78.981 14.63,0 33.17,2.274 48.77,5.532 4.88,0.968 6.18,2.601 6.18,6.172 v 2.269 c 0,3.258 -2.28,4.551 -4.88,4.551 -0.64,0 -1.3,-0.32 -1.95,-0.32 -15.93,-3.262 -33.81,-5.52 -48.12,-5.52 -32.51,0 -58.83,11.699 -58.83,66.297 v 6.84 h 109.88 c 3.25,0 6.17,2.601 6.17,6.172 v 0" /><path
         id="path100"
         style="fill:#0f80cc;fill-opacity:1;fill-rule:nonzero;stroke:none"
         d="m 3946.03,378.582 c 0,21.457 -14.31,32.18 -41.29,47.137 l -21.78,12.043 c -19.83,11.027 -31.54,19.488 -31.54,33.797 0,23.089 15.92,27.312 36.73,27.312 17.89,0 36.74,-2.601 45.19,-3.582 0.33,0 0.65,0 0.98,0 3.25,0 5.85,1.293 5.85,5.203 v 2.598 c 0,2.93 -2.28,4.879 -6.83,5.531 -11.05,1.301 -23.08,2.918 -46.48,2.918 -25.69,0 -49.75,-9.738 -49.75,-39.98 0,-22.098 14.96,-32.848 39.35,-46.168 l 20.8,-11.36 c 27.31,-14.972 34.46,-22.109 34.46,-35.449 0,-26.332 -17.88,-32.5 -41.29,-32.5 -13.33,0 -32.19,2.59 -47.78,5.188 -0.66,0 -1.31,0 -1.96,0 -2.93,0 -5.2,-1.309 -5.2,-4.551 v -3.571 c 0,-2.929 2.61,-4.218 7.16,-5.199 11.7,-2.277 32.5,-4.551 47.13,-4.551 30.23,0 56.25,10.391 56.25,45.184 v 0" /><path
         id="path102"
         style="fill:#0f80cc;fill-opacity:1;fill-rule:nonzero;stroke:none"
         d="m 4071.88,339.57 v 1.961 c 0,2.93 -1.94,4.551 -6.81,4.551 h -15.62 c -14.29,0 -22.43,2.93 -22.43,22.418 v 128.082 h 38.69 c 3.58,0 6.17,1.957 6.17,5.219 v 3.238 c 0,3.242 -2.59,4.883 -6.17,4.883 h -38.69 v 33.476 c 0,3.243 -1.94,6.172 -5.19,6.172 h -3.58 c -3.57,0 -5.53,-2.929 -5.53,-6.172 v -33.476 h -32.18 c -3.58,0 -6.17,-1.641 -6.17,-4.883 v -3.238 c 0,-3.262 2.59,-5.219 6.17,-5.219 h 32.18 V 368.5 c 0,-27.949 13.66,-35.102 36.73,-35.102 5.54,0 12.03,0.313 16.92,0.961 4.55,0.661 5.51,2.61 5.51,5.211 v 0" /><path
         id="path104"
         style="fill:#0f80cc;fill-opacity:1;fill-rule:evenodd;stroke:none"
         d="m 4235.8,341.84 v 161.91 c 0,3.238 -2.93,6.172 -6.18,6.172 h -1.95 c -3.25,0 -6.18,-2.934 -6.18,-6.172 V 359.73 c -16.26,-7.48 -34.78,-13.339 -51.36,-13.339 -0.33,0 -0.33,0 -0.65,0 -24.06,0 -43.24,12.691 -43.24,49.41 V 503.75 c 0,3.238 -2.6,6.172 -5.85,6.172 h -2.27 c -3.58,0 -6.18,-2.934 -6.18,-6.172 V 395.801 c 0,-44.84 26,-62.09 57.21,-62.09 16.91,0 35.44,5.219 52.34,13.34 v -5.211 c 0,-3.578 2.28,-6.508 5.85,-6.508 h 2.61 c 3.58,0 5.85,2.93 5.85,6.508 v 0" /><path
         id="path106"
         style="fill:#0f80cc;fill-opacity:1;fill-rule:evenodd;stroke:none"
         d="m 4389.69,350.289 c -11.71,-1.949 -29.59,-4.207 -45.19,-4.207 -36.41,0 -49.42,24.367 -49.42,66.297 v 21.473 c 0,42.91 13.66,65.019 49.42,65.019 12.68,0 32.83,-1.621 45.19,-4.223 V 350.289 Z m 14.3,-4.551 v 224.973 c 0,3.258 -2.28,6.168 -5.52,6.168 h -3.26 c -3.25,0 -5.52,-2.91 -5.52,-6.168 V 506.66 c -13.01,2.93 -32.51,4.879 -45.19,4.879 -42.26,0 -63.73,-26.32 -63.73,-77.687 v -21.473 c 0,-46.809 18.87,-78.981 63.73,-78.981 18.53,0 40.3,3.243 54.61,6.172 3.9,0.981 4.88,2.27 4.88,6.168 v 0" /><path
         id="path108"
         style="fill:#0f80cc;fill-opacity:1;fill-rule:evenodd;stroke:none"
         d="m 4552.66,362.66 c -21.77,-11.699 -37.39,-16.578 -55.58,-16.578 -19.51,0 -35.44,9.41 -35.44,39.637 v 4.242 c 0,27.641 16.9,37.391 65.99,37.391 h 25.03 V 362.66 Z m 14.3,-20.82 v 109.879 c 0,35.121 -11.37,59.82 -55.26,59.82 -21.46,0 -32.51,-1.297 -46.16,-2.918 -4.88,-0.652 -7.48,-2.269 -7.48,-5.859 v -1.942 c 0,-3.57 3.25,-4.879 6.18,-4.879 0.65,0 0.97,0 1.3,0 15.28,1.618 24.7,2.93 46.16,2.93 31.53,0 40.96,-13.34 40.96,-47.152 V 440.02 h -25.03 c -59.16,0 -80.3,-16.579 -80.3,-50.059 v -4.242 c 0,-40.617 25.37,-52.321 49.75,-52.321 20.15,0 39.34,7.793 55.26,16.563 v -8.121 c 0,-3.578 2.92,-6.508 6.51,-6.508 h 1.61 c 3.58,0 6.5,2.93 6.5,6.508 v 0" /><path
         id="path110"
         style="fill:#0f80cc;fill-opacity:1;fill-rule:evenodd;stroke:none"
         d="m 4740.62,341.531 v 107.93 c 0,45.187 -26.01,62.078 -57.22,62.078 -16.91,0 -35.43,-5.187 -52.34,-13.32 v 5.203 c 0,3.566 -2.28,6.5 -5.85,6.5 h -2.6 c -3.58,0 -5.85,-2.934 -5.85,-6.5 V 341.531 c 0,-3.269 2.92,-6.199 6.18,-6.199 h 1.94 c 3.25,0 6.18,2.93 6.18,6.199 v 144 c 16.26,7.809 34.79,13.34 51.37,13.34 24.38,0 43.89,-12.359 43.89,-49.41 v -107.93 c 0,-3.269 2.6,-6.199 5.85,-6.199 h 2.27 c 3.58,0 6.18,2.93 6.18,6.199 v 0" /><path
         id="path112"
         style="fill:#0f80cc;fill-opacity:1;fill-rule:nonzero;stroke:none"
         d="m 4871.75,339.57 v 1.961 c 0,2.93 -1.95,4.551 -6.83,4.551 h -15.6 c -14.3,0 -22.44,2.93 -22.44,22.418 v 128.082 h 38.7 c 3.57,0 6.17,1.957 6.17,5.219 v 3.238 c 0,3.242 -2.6,4.883 -6.17,4.883 h -38.7 v 33.476 c 0,3.243 -1.94,6.172 -5.19,6.172 h -3.57 c -3.58,0 -5.53,-2.929 -5.53,-6.172 v -33.476 h -32.19 c -3.57,0 -6.18,-1.641 -6.18,-4.883 v -3.238 c 0,-3.262 2.61,-5.219 6.18,-5.219 h 32.19 V 368.5 c 0,-27.949 13.65,-35.102 36.73,-35.102 5.52,0 12.03,0.313 16.91,0.961 4.55,0.661 5.52,2.61 5.52,5.211 v 0" /><path
         id="path114"
         style="fill:#0f80cc;fill-opacity:1;fill-rule:evenodd;stroke:none"
         d="m 5014.85,432.23 h -101.74 v 1.622 c 0,38.687 15.27,65.019 51.35,65.019 36.74,0 50.39,-23.73 50.39,-64.691 v -1.95 z m 14.31,-6.839 v 8.789 c 0,46.152 -19.83,77.359 -64.7,77.359 -42.91,0 -65.66,-32.828 -65.66,-77.687 v -21.473 c 0,-61.418 32.83,-78.981 73.14,-78.981 14.63,0 33.17,2.274 48.76,5.532 4.89,0.968 6.18,2.601 6.18,6.172 v 2.269 c 0,3.258 -2.27,4.551 -4.87,4.551 -0.65,0 -1.31,-0.32 -1.96,-0.32 -15.93,-3.262 -33.8,-5.52 -48.11,-5.52 -32.51,0 -58.83,11.699 -58.83,66.297 v 6.84 h 109.87 c 3.26,0 6.18,2.601 6.18,6.172 v 0" /><path
         id="path116"
         style="fill:#0f80cc;fill-opacity:1;fill-rule:nonzero;stroke:none"
         d="m 5178.15,378.582 c 0,21.457 -14.3,32.18 -41.27,47.137 l -21.79,12.043 c -19.84,11.027 -31.54,19.488 -31.54,33.797 0,23.089 15.93,27.312 36.74,27.312 17.88,0 36.73,-2.601 45.19,-3.582 0.32,0 0.64,0 0.98,0 3.24,0 5.84,1.293 5.84,5.203 v 2.598 c 0,2.93 -2.27,4.879 -6.82,5.531 -11.06,1.301 -23.09,2.918 -46.5,2.918 -25.68,0 -49.73,-9.738 -49.73,-39.98 0,-22.098 14.96,-32.848 39.33,-46.168 l 20.81,-11.36 c 27.31,-14.972 34.46,-22.109 34.46,-35.449 0,-26.332 -17.88,-32.5 -41.28,-32.5 -13.34,0 -32.19,2.59 -47.79,5.188 -0.65,0 -1.3,0 -1.96,0 -2.92,0 -5.19,-1.309 -5.19,-4.551 v -3.571 c 0,-2.929 2.59,-4.218 7.15,-5.199 11.7,-2.277 32.51,-4.551 47.13,-4.551 30.24,0 56.24,10.391 56.24,45.184 v 0" /><path
         id="path118"
         style="fill:#0f80cc;fill-opacity:1;fill-rule:nonzero;stroke:none"
         d="m 976.207,2504.75 c 0.805,-1.5 1.535,-3.07 2.191,-4.7 0.879,-2.14 1.614,-4.39 2.207,-6.74 1.364,-5.37 1.958,-11.25 1.723,-17.58 -0.176,-4.78 -0.836,-9.6 -1.918,-14.39 -0.742,-3.31 -1.699,-6.6 -2.844,-9.87 -0.906,-2.6 -1.945,-5.18 -3.093,-7.74 -1.051,-2.33 -2.192,-4.64 -3.418,-6.91 -1.16,-2.16 -2.41,-4.28 -3.731,-6.37 -1.277,-2.04 -2.636,-4.04 -4.054,-6 -1.407,-1.95 -2.879,-3.85 -4.407,-5.72 -1.543,-1.87 -3.14,-3.7 -4.8,-5.49 -1.692,-1.82 -3.442,-3.58 -5.25,-5.3 -1.875,-1.77 -3.809,-3.49 -5.79,-5.13 -2.109,-1.74 -4.273,-3.4 -6.492,-4.99 -2.449,-1.75 -4.965,-3.38 -7.527,-4.91 -3.113,-1.84 -6.305,-3.52 -9.563,-5 -4.214,-1.93 -8.543,-3.54 -12.941,-4.79 -4.094,-1.17 -8.094,-1.98 -11.957,-2.46 -15.59,-1.91 -29.227,1.65 -39.285,9.45 l -57.383,46.35 7.199,8.25 c 9.692,-8.2 22.973,-12.75 38.574,-12.49 4.172,0.08 8.524,0.5 13,1.28 44.188,7.66 85.122,48.15 91.094,90.11 0.481,3.35 0.727,6.59 0.742,9.74 l 17.754,-16.09 c 0.953,-0.83 1.86,-1.68 2.727,-2.58 0.883,-0.92 1.726,-1.88 2.543,-2.87 0.847,-1.04 1.644,-2.13 2.398,-3.25 0.824,-1.22 1.586,-2.49 2.301,-3.81 v 0" /><g
         id="g120"><g
           clip-path="url(#clipPath126)"
           id="g122"><path
             id="path128"
             style="fill:#0f80cc;fill-opacity:1;fill-rule:nonzero;stroke:none"
             d="m 925.504,2357.83 -129.899,75 -4.5,-7.8 129.895,-75 4.504,7.8" /><path
             id="path130"
             style="fill:#0f80cc;fill-opacity:1;fill-rule:nonzero;stroke:none"
             d="m 930.59,2366.64 -129.902,74.99 -4.497,-7.79 129.899,-75 4.5,7.8" /><path
             id="path132"
             style="fill:#0f80cc;fill-opacity:1;fill-rule:nonzero;stroke:none"
             d="m 935.676,2375.44 -129.899,75 -4.504,-7.8 129.899,-75 4.504,7.8" /><path
             id="path134"
             style="fill:#0f80cc;fill-opacity:1;fill-rule:nonzero;stroke:none"
             d="m 940.758,2384.25 -129.899,75 -4.504,-7.8 129.899,-75 4.504,7.8" /><path
             id="path136"
             style="fill:#0f80cc;fill-opacity:1;fill-rule:nonzero;stroke:none"
             d="m 945.84,2393.05 -129.899,75 -4.5,-7.79 129.903,-75 4.496,7.79" /><path
             id="path138"
             style="fill:#0f80cc;fill-opacity:1;fill-rule:nonzero;stroke:none"
             d="m 950.93,2401.86 -129.907,75 -4.5,-7.8 129.903,-74.99 4.504,7.79" /><path
             id="path140"
             style="fill:#0f80cc;fill-opacity:1;fill-rule:nonzero;stroke:none"
             d="m 956.012,2410.67 -129.899,74.99 -4.504,-7.79 129.899,-75 4.504,7.8" /><path
             id="path142"
             style="fill:#0f80cc;fill-opacity:1;fill-rule:nonzero;stroke:none"
             d="m 961.094,2419.48 -129.899,74.99 -4.5,-7.8 129.899,-74.99 4.5,7.8" /><path
             id="path144"
             style="fill:#0f80cc;fill-opacity:1;fill-rule:nonzero;stroke:none"
             d="m 966.176,2428.28 -129.899,74.99 -4.5,-7.79 129.903,-75 4.496,7.8" /><path
             id="path146"
             style="fill:#0f80cc;fill-opacity:1;fill-rule:nonzero;stroke:none"
             d="m 971.266,2437.09 -129.903,74.99 -4.504,-7.79 129.903,-75 4.504,7.8" /><path
             id="path148"
             style="fill:#0f80cc;fill-opacity:1;fill-rule:nonzero;stroke:none"
             d="m 976.348,2445.89 -129.899,75 -4.5,-7.8 129.899,-75 4.5,7.8" /><path
             id="path150"
             style="fill:#0f80cc;fill-opacity:1;fill-rule:nonzero;stroke:none"
             d="m 981.43,2454.7 -129.899,75 -4.5,-7.8 129.899,-75 4.5,7.8" /><path
             id="path152"
             style="fill:#0f80cc;fill-opacity:1;fill-rule:nonzero;stroke:none"
             d="m 986.516,2463.5 -129.899,75 -4.504,-7.79 129.899,-75 4.504,7.79" /><path
             id="path154"
             style="fill:#0f80cc;fill-opacity:1;fill-rule:nonzero;stroke:none"
             d="m 991.602,2472.31 -129.903,75 -4.504,-7.8 129.907,-74.99 4.5,7.79" /><path
             id="path156"
             style="fill:#0f80cc;fill-opacity:1;fill-rule:nonzero;stroke:none"
             d="m 996.684,2481.12 -129.903,74.99 -4.496,-7.79 129.899,-75 4.5,7.8" /><path
             id="path158"
             style="fill:#0f80cc;fill-opacity:1;fill-rule:nonzero;stroke:none"
             d="m 1001.77,2489.92 -129.899,75 -4.504,-7.8 129.899,-74.99 4.504,7.79" /><path
             id="path160"
             style="fill:#0f80cc;fill-opacity:1;fill-rule:nonzero;stroke:none"
             d="m 1008.47,2501.53 -130.38,75.27 -8.82,-15.27 130.378,-75.28 8.822,15.28" /></g></g><path
         id="path162"
         style="fill:#0f80cc;fill-opacity:1;fill-rule:nonzero;stroke:none"
         d="m 713.879,1490.39 c 10.777,-8.38 17.078,-22.56 16.18,-40.29 -1.723,-33.93 -29.235,-67.81 -61.336,-75.49 -2.176,-0.53 -4.325,-0.9 -6.418,-1.17 -12.438,-1.52 -23.414,1.46 -31.719,7.91 l -57.434,46.37 5.77,7.54 c 5.586,-4.22 12.488,-7.23 20.508,-8.64 2.156,-0.39 4.402,-0.64 6.718,-0.8 34.184,-2.11 71.766,23.17 83.762,56.31 3.418,9.41 4.399,18.46 3.258,26.6 l 20.711,-18.34 v 0" /><g
         id="g164"><g
           clip-path="url(#clipPath170)"
           id="g166"><path
             id="path172"
             style="fill:#0f80cc;fill-opacity:1;fill-rule:nonzero;stroke:none"
             d="m 685.984,1357.46 -114.937,66.37 -5.063,-8.75 114.946,-66.37 5.054,8.75" /><path
             id="path174"
             style="fill:#0f80cc;fill-opacity:1;fill-rule:nonzero;stroke:none"
             d="m 690.902,1366 -114.941,66.35 -5.059,-8.75 114.95,-66.37 5.05,8.77" /><path
             id="path176"
             style="fill:#0f80cc;fill-opacity:1;fill-rule:nonzero;stroke:none"
             d="m 695.82,1374.51 -114.941,66.35 -5.059,-8.75 114.946,-66.37 5.054,8.77" /><path
             id="path178"
             style="fill:#0f80cc;fill-opacity:1;fill-rule:nonzero;stroke:none"
             d="m 700.742,1383.03 -114.941,66.35 -5.059,-8.75 114.942,-66.37 5.058,8.77" /><path
             id="path180"
             style="fill:#0f80cc;fill-opacity:1;fill-rule:nonzero;stroke:none"
             d="m 705.66,1391.54 -114.941,66.37 -5.059,-8.77 114.942,-66.36 5.058,8.76" /><path
             id="path182"
             style="fill:#0f80cc;fill-opacity:1;fill-rule:nonzero;stroke:none"
             d="m 710.582,1400.06 -114.941,66.37 -5.059,-8.77 114.941,-66.37 5.059,8.77" /><path
             id="path184"
             style="fill:#0f80cc;fill-opacity:1;fill-rule:nonzero;stroke:none"
             d="m 715.496,1408.58 -114.937,66.36 -5.063,-8.77 114.942,-66.36 5.058,8.77" /><path
             id="path186"
             style="fill:#0f80cc;fill-opacity:1;fill-rule:nonzero;stroke:none"
             d="m 720.414,1417.09 -114.941,66.37 -5.059,-8.77 114.941,-66.35 5.059,8.75" /><path
             id="path188"
             style="fill:#0f80cc;fill-opacity:1;fill-rule:nonzero;stroke:none"
             d="m 725.332,1425.61 -114.941,66.36 -5.059,-8.76 114.941,-66.35 5.059,8.75" /><path
             id="path190"
             style="fill:#0f80cc;fill-opacity:1;fill-rule:nonzero;stroke:none"
             d="m 730.25,1434.12 -114.941,66.37 -5.059,-8.77 114.941,-66.35 5.059,8.75" /><path
             id="path192"
             style="fill:#0f80cc;fill-opacity:1;fill-rule:nonzero;stroke:none"
             d="m 735.168,1442.64 -114.941,66.37 -5.059,-8.75 114.937,-66.37 5.063,8.75" /><path
             id="path194"
             style="fill:#0f80cc;fill-opacity:1;fill-rule:nonzero;stroke:none"
             d="m 740.082,1451.17 -114.941,66.35 -5.059,-8.75 114.941,-66.37 5.059,8.77" /><path
             id="path196"
             style="fill:#0f80cc;fill-opacity:1;fill-rule:nonzero;stroke:none"
             d="m 745,1459.69 -114.941,66.35 -5.059,-8.75 114.941,-66.37 5.059,8.77" /><path
             id="path198"
             style="fill:#0f80cc;fill-opacity:1;fill-rule:nonzero;stroke:none"
             d="m 749.918,1468.21 -114.941,66.34 -5.059,-8.75 114.941,-66.36 5.059,8.77" /><path
             id="path200"
             style="fill:#0f80cc;fill-opacity:1;fill-rule:nonzero;stroke:none"
             d="m 754.52,1476.17 -115.704,66.8 -6.699,-11.6 115.703,-66.8 6.7,11.6" /></g></g><path
         id="path202"
         style="fill:#0f80cc;fill-opacity:1;fill-rule:nonzero;stroke:none"
         d="m 977.766,1772.11 c 0.933,-1.75 1.789,-3.57 2.55,-5.45 1,-2.49 1.848,-5.08 2.536,-7.78 1.578,-6.22 2.281,-13.04 2.003,-20.34 -0.21,-5.44 -0.937,-10.88 -2.16,-16.25 -0.82,-3.66 -1.875,-7.29 -3.121,-10.87 -1,-2.83 -2.125,-5.64 -3.367,-8.42 -1.113,-2.48 -2.328,-4.94 -3.641,-7.35 -1.222,-2.27 -2.523,-4.51 -3.906,-6.69 -1.324,-2.1 -2.726,-4.16 -4.187,-6.19 -1.438,-1.98 -2.93,-3.93 -4.485,-5.82 -1.554,-1.9 -3.175,-3.74 -4.847,-5.54 -1.684,-1.81 -3.426,-3.58 -5.231,-5.28 -1.851,-1.76 -3.773,-3.46 -5.734,-5.08 -2.082,-1.73 -4.215,-3.36 -6.399,-4.92 -2.394,-1.71 -4.851,-3.32 -7.363,-4.8 -3.086,-1.84 -6.25,-3.5 -9.476,-4.96 -4.958,-2.25 -10.075,-4.07 -15.278,-5.37 -3.242,-0.82 -6.422,-1.42 -9.531,-1.8 -16.496,-2.02 -31.051,1.92 -41.973,10.39 l -52.066,39.95 5.555,7 c 9.14,-7.34 21.082,-11.85 35.023,-12.58 3.238,-0.17 6.59,-0.13 10.043,0.11 44.785,3.14 88.914,41.45 98.289,85.23 2.219,10.24 2.336,19.85 0.633,28.52 l 12.621,-9.66 2.125,-1.74 c 1.059,-0.93 2.09,-1.9 3.078,-2.92 1.012,-1.04 1.981,-2.13 2.898,-3.27 0.965,-1.19 1.891,-2.44 2.758,-3.72 0.942,-1.42 1.825,-2.88 2.653,-4.4 v 0" /><g
         id="g204"><g
           clip-path="url(#clipPath210)"
           id="g206"><path
             id="path212"
             style="fill:#0f80cc;fill-opacity:1;fill-rule:nonzero;stroke:none"
             d="m 926.449,1615.69 -125.258,72.31 -4.339,-7.51 125.257,-72.32 4.34,7.52" /><path
             id="path214"
             style="fill:#0f80cc;fill-opacity:1;fill-rule:nonzero;stroke:none"
             d="m 931.348,1624.16 -125.258,72.32 -4.344,-7.52 125.262,-72.32 4.34,7.52" /><path
             id="path216"
             style="fill:#0f80cc;fill-opacity:1;fill-rule:nonzero;stroke:none"
             d="m 936.238,1632.64 -125.258,72.32 -4.339,-7.52 125.257,-72.32 4.34,7.52" /><path
             id="path218"
             style="fill:#0f80cc;fill-opacity:1;fill-rule:nonzero;stroke:none"
             d="m 941.133,1641.12 -125.258,72.31 -4.344,-7.51 125.262,-72.32 4.34,7.52" /><path
             id="path220"
             style="fill:#0f80cc;fill-opacity:1;fill-rule:nonzero;stroke:none"
             d="m 946.031,1649.6 -125.261,72.31 -4.34,-7.51 125.258,-72.32 4.343,7.52" /><path
             id="path222"
             style="fill:#0f80cc;fill-opacity:1;fill-rule:nonzero;stroke:none"
             d="m 950.922,1658.07 -125.258,72.32 -4.34,-7.52 125.258,-72.32 4.34,7.52" /><path
             id="path224"
             style="fill:#0f80cc;fill-opacity:1;fill-rule:nonzero;stroke:none"
             d="m 955.82,1666.55 -125.257,72.32 -4.34,-7.52 125.257,-72.32 4.34,7.52" /><path
             id="path226"
             style="fill:#0f80cc;fill-opacity:1;fill-rule:nonzero;stroke:none"
             d="m 960.715,1675.03 -125.262,72.32 -4.34,-7.52 125.258,-72.32 4.344,7.52" /><path
             id="path228"
             style="fill:#0f80cc;fill-opacity:1;fill-rule:nonzero;stroke:none"
             d="m 965.605,1683.5 -125.257,72.32 -4.34,-7.52 125.258,-72.32 4.339,7.52" /><path
             id="path230"
             style="fill:#0f80cc;fill-opacity:1;fill-rule:nonzero;stroke:none"
             d="m 970.504,1691.98 -125.262,72.32 -4.344,-7.52 125.262,-72.32 4.344,7.52" /><path
             id="path232"
             style="fill:#0f80cc;fill-opacity:1;fill-rule:nonzero;stroke:none"
             d="m 975.395,1700.46 -125.258,72.32 -4.34,-7.52 125.258,-72.32 4.34,7.52" /><path
             id="path234"
             style="fill:#0f80cc;fill-opacity:1;fill-rule:nonzero;stroke:none"
             d="m 980.293,1708.94 -125.266,72.32 -4.339,-7.52 125.265,-72.32 4.34,7.52" /><path
             id="path236"
             style="fill:#0f80cc;fill-opacity:1;fill-rule:nonzero;stroke:none"
             d="m 985.188,1717.41 -125.262,72.32 -4.34,-7.52 125.258,-72.32 4.344,7.52" /><path
             id="path238"
             style="fill:#0f80cc;fill-opacity:1;fill-rule:nonzero;stroke:none"
             d="m 990.078,1725.89 -125.258,72.32 -4.34,-7.52 125.262,-72.32 4.336,7.52" /><path
             id="path240"
             style="fill:#0f80cc;fill-opacity:1;fill-rule:nonzero;stroke:none"
             d="m 994.977,1734.37 -125.258,72.32 -4.344,-7.52 125.262,-72.32 4.34,7.52" /><path
             id="path242"
             style="fill:#0f80cc;fill-opacity:1;fill-rule:nonzero;stroke:none"
             d="m 999.867,1742.84 -125.258,72.32 -4.339,-7.52 125.257,-72.31 4.34,7.51" /><path
             id="path244"
             style="fill:#0f80cc;fill-opacity:1;fill-rule:nonzero;stroke:none"
             d="m 1004.76,1751.33 -125.256,72.31 -4.344,-7.51 125.26,-72.32 4.34,7.52" /><path
             id="path246"
             style="fill:#0f80cc;fill-opacity:1;fill-rule:nonzero;stroke:none"
             d="m 1012.81,1765.26 -126.505,73.03 -10.297,-17.83 126.502,-73.04 10.3,17.84" /></g></g><path
         id="path248"
         style="fill:#0f80cc;fill-opacity:1;fill-rule:nonzero;stroke:none"
         d="m 980.719,1945.81 c -1.328,-2.48 -2.758,-4.92 -4.274,-7.32 -1.457,-2.31 -3.004,-4.59 -4.609,-6.81 -1.586,-2.2 -3.246,-4.35 -4.965,-6.44 -1.719,-2.1 -3.512,-4.15 -5.367,-6.14 -1.891,-2.03 -3.832,-4 -5.844,-5.9 -2.082,-1.96 -4.215,-3.86 -6.422,-5.68 -2.328,-1.93 -4.718,-3.77 -7.16,-5.52 -2.687,-1.91 -5.437,-3.71 -8.25,-5.38 -3.461,-2.06 -7.019,-3.92 -10.648,-5.57 -5.192,-2.37 -10.528,-4.3 -15.969,-5.73 -3.875,-1.01 -7.68,-1.75 -11.395,-2.21 -18.035,-2.21 -33.898,2.02 -45.734,11.22 l -78.703,60.48 3.898,4.8 c 11.012,-9.12 25.735,-14.47 42.969,-14.77 4.067,-0.07 8.274,0.14 12.606,0.66 51.437,6.09 100.617,51.65 109.523,101.58 1.305,7.29 1.676,14.26 1.203,20.82 l 30.508,-23.47 c 14.309,-11.1 22.738,-29.46 21.883,-52.56 -0.356,-9.71 -2.332,-19.49 -5.653,-28.97 -1.074,-3.06 -2.293,-6.1 -3.628,-9.08 -1.215,-2.71 -2.543,-5.39 -3.969,-8.01 v 0" /><g
         id="g250"><g
           clip-path="url(#clipPath256)"
           id="g252"><path
             id="path258"
             style="fill:#0f80cc;fill-opacity:1;fill-rule:nonzero;stroke:none"
             d="m 929.285,1856.7 -160.574,92.7 -5.023,-8.7 160.57,-92.71 5.027,8.71" /><path
             id="path260"
             style="fill:#0f80cc;fill-opacity:1;fill-rule:nonzero;stroke:none"
             d="m 934.316,1865.41 -160.578,92.7 -5.023,-8.7 160.57,-92.71 5.031,8.71" /><path
             id="path262"
             style="fill:#0f80cc;fill-opacity:1;fill-rule:nonzero;stroke:none"
             d="m 939.348,1874.12 -160.575,92.7 -5.027,-8.7 160.57,-92.71 5.032,8.71" /><path
             id="path264"
             style="fill:#0f80cc;fill-opacity:1;fill-rule:nonzero;stroke:none"
             d="m 944.375,1882.83 -160.574,92.7 -5.028,-8.7 160.575,-92.71 5.027,8.71" /><path
             id="path266"
             style="fill:#0f80cc;fill-opacity:1;fill-rule:nonzero;stroke:none"
             d="m 949.402,1891.54 -160.574,92.71 -5.023,-8.71 160.57,-92.71 5.027,8.71" /><path
             id="path268"
             style="fill:#0f80cc;fill-opacity:1;fill-rule:nonzero;stroke:none"
             d="m 954.434,1900.25 -160.579,92.71 -5.023,-8.71 160.57,-92.71 5.032,8.71" /><path
             id="path270"
             style="fill:#0f80cc;fill-opacity:1;fill-rule:nonzero;stroke:none"
             d="m 959.457,1908.96 -160.57,92.71 -5.032,-8.71 160.579,-92.7 5.023,8.7" /><path
             id="path272"
             style="fill:#0f80cc;fill-opacity:1;fill-rule:nonzero;stroke:none"
             d="m 964.488,1917.67 -160.57,92.71 -5.031,-8.71 160.578,-92.7 5.023,8.7" /><path
             id="path274"
             style="fill:#0f80cc;fill-opacity:1;fill-rule:nonzero;stroke:none"
             d="m 969.516,1926.38 -160.571,92.71 -5.023,-8.71 160.57,-92.7 5.024,8.7" /><path
             id="path276"
             style="fill:#0f80cc;fill-opacity:1;fill-rule:nonzero;stroke:none"
             d="m 974.551,1935.09 -160.574,92.71 -5.028,-8.71 160.571,-92.71 5.031,8.71" /><path
             id="path278"
             style="fill:#0f80cc;fill-opacity:1;fill-rule:nonzero;stroke:none"
             d="m 979.574,1943.8 -160.57,92.71 -5.027,-8.71 160.574,-92.71 5.023,8.71" /><path
             id="path280"
             style="fill:#0f80cc;fill-opacity:1;fill-rule:nonzero;stroke:none"
             d="m 984.605,1952.51 -160.578,92.71 -5.023,-8.71 160.57,-92.7 5.031,8.7" /><path
             id="path282"
             style="fill:#0f80cc;fill-opacity:1;fill-rule:nonzero;stroke:none"
             d="m 989.633,1961.22 -160.574,92.71 -5.028,-8.71 160.574,-92.7 5.028,8.7" /><path
             id="path284"
             style="fill:#0f80cc;fill-opacity:1;fill-rule:nonzero;stroke:none"
             d="m 994.664,1969.93 -160.57,92.71 -5.031,-8.71 160.57,-92.7 5.031,8.7" /><path
             id="path286"
             style="fill:#0f80cc;fill-opacity:1;fill-rule:nonzero;stroke:none"
             d="m 999.688,1978.64 -160.571,92.71 -5.023,-8.71 160.57,-92.71 5.024,8.71" /><path
             id="path288"
             style="fill:#0f80cc;fill-opacity:1;fill-rule:nonzero;stroke:none"
             d="m 1004.72,1987.35 -160.575,92.71 -5.024,-8.71 160.57,-92.71 5.029,8.71" /><path
             id="path290"
             style="fill:#0f80cc;fill-opacity:1;fill-rule:nonzero;stroke:none"
             d="m 1009.75,1996.06 -160.574,92.71 -5.031,-8.71 160.575,-92.7 5.03,8.7" /><path
             id="path292"
             style="fill:#0f80cc;fill-opacity:1;fill-rule:nonzero;stroke:none"
             d="m 1014.78,2004.77 -160.577,92.71 -5.027,-8.71 160.574,-92.7 5.03,8.7" /><path
             id="path294"
             style="fill:#0f80cc;fill-opacity:1;fill-rule:nonzero;stroke:none"
             d="m 1019.8,2013.48 -160.566,92.71 -5.031,-8.71 160.577,-92.7 5.02,8.7" /><path
             id="path296"
             style="fill:#0f80cc;fill-opacity:1;fill-rule:nonzero;stroke:none"
             d="m 1025.06,2022.58 -160.298,92.55 -7.707,-13.35 160.295,-92.55 7.71,13.35" /></g></g><path
         id="path298"
         style="fill:#0f80cc;fill-opacity:1;fill-rule:nonzero;stroke:none"
         d="m 988.066,2268.47 c 1.02,-2.51 1.875,-5.13 2.571,-7.88 1.574,-6.23 2.285,-13.06 2.015,-20.4 -0.207,-5.53 -0.957,-11.1 -2.207,-16.62 -0.867,-3.8 -1.953,-7.58 -3.265,-11.31 -1.043,-2.99 -2.223,-5.94 -3.532,-8.85 -1.187,-2.64 -2.488,-5.26 -3.878,-7.84 -1.317,-2.44 -2.719,-4.84 -4.211,-7.19 -1.442,-2.29 -2.961,-4.54 -4.551,-6.75 -1.57,-2.17 -3.219,-4.3 -4.93,-6.39 -1.723,-2.09 -3.504,-4.14 -5.359,-6.12 -1.875,-2.03 -3.832,-3.99 -5.832,-5.89 -2.078,-1.97 -4.227,-3.87 -6.43,-5.69 -2.328,-1.94 -4.727,-3.79 -7.187,-5.53 -2.707,-1.93 -5.477,-3.74 -8.309,-5.42 -3.465,-2.06 -7.02,-3.92 -10.648,-5.58 -4.954,-2.26 -10.047,-4.12 -15.235,-5.54 -4.195,-1.15 -8.312,-1.96 -12.312,-2.45 -17.664,-2.17 -33.164,1.92 -44.661,10.85 l -56.515,43.3 5.504,6.63 c 10.394,-8.8 24.406,-14.08 40.929,-14.66 4.317,-0.15 8.817,0.02 13.461,0.53 50.262,5.52 98.86,48.9 108.211,96.58 1.426,7.24 1.86,14.16 1.395,20.67 l 8.644,-6.63 2.172,-1.79 c 1.098,-0.95 2.145,-1.94 3.157,-2.98 1.027,-1.07 2.019,-2.18 2.957,-3.34 0.988,-1.21 1.914,-2.47 2.793,-3.79 0.957,-1.41 1.855,-2.89 2.675,-4.43 0.953,-1.76 1.809,-3.59 2.578,-5.49 v 0" /><g
         id="g300"><g
           clip-path="url(#clipPath306)"
           id="g302"><path
             id="path308"
             style="fill:#0f80cc;fill-opacity:1;fill-rule:nonzero;stroke:none"
             d="m 928.379,2106.61 -136.332,78.72 -5.266,-9.11 136.34,-78.72 5.258,9.11" /><path
             id="path310"
             style="fill:#0f80cc;fill-opacity:1;fill-rule:nonzero;stroke:none"
             d="m 933.297,2115.13 -136.34,78.71 -5.262,-9.12 136.336,-78.71 5.266,9.12" /><path
             id="path312"
             style="fill:#0f80cc;fill-opacity:1;fill-rule:nonzero;stroke:none"
             d="m 938.207,2123.64 -136.336,78.71 -5.266,-9.12 136.34,-78.71 5.262,9.12" /><path
             id="path314"
             style="fill:#0f80cc;fill-opacity:1;fill-rule:nonzero;stroke:none"
             d="m 943.121,2132.14 -136.34,78.72 -5.258,-9.11 136.336,-78.72 5.262,9.11" /><path
             id="path316"
             style="fill:#0f80cc;fill-opacity:1;fill-rule:nonzero;stroke:none"
             d="m 948.035,2140.66 -136.336,78.71 -5.261,-9.11 136.335,-78.72 5.262,9.12" /><path
             id="path318"
             style="fill:#0f80cc;fill-opacity:1;fill-rule:nonzero;stroke:none"
             d="m 952.949,2149.17 -136.34,78.71 -5.261,-9.11 136.34,-78.72 5.261,9.12" /><path
             id="path320"
             style="fill:#0f80cc;fill-opacity:1;fill-rule:nonzero;stroke:none"
             d="m 957.859,2157.68 -136.336,78.71 -5.261,-9.11 136.336,-78.72 5.261,9.12" /><path
             id="path322"
             style="fill:#0f80cc;fill-opacity:1;fill-rule:nonzero;stroke:none"
             d="m 962.773,2166.19 -136.335,78.71 -5.266,-9.11 136.34,-78.72 5.261,9.12" /><path
             id="path324"
             style="fill:#0f80cc;fill-opacity:1;fill-rule:nonzero;stroke:none"
             d="m 967.691,2174.7 -136.339,78.71 -5.262,-9.12 136.336,-78.71 5.265,9.12" /><path
             id="path326"
             style="fill:#0f80cc;fill-opacity:1;fill-rule:nonzero;stroke:none"
             d="m 972.602,2183.21 -136.336,78.71 -5.266,-9.12 136.34,-78.71 5.262,9.12" /><path
             id="path328"
             style="fill:#0f80cc;fill-opacity:1;fill-rule:nonzero;stroke:none"
             d="m 977.516,2191.71 -136.34,78.72 -5.258,-9.11 136.34,-78.71 5.258,9.1" /><path
             id="path330"
             style="fill:#0f80cc;fill-opacity:1;fill-rule:nonzero;stroke:none"
             d="m 982.426,2200.23 -136.336,78.71 -5.262,-9.11 136.34,-78.72 5.258,9.12" /><path
             id="path332"
             style="fill:#0f80cc;fill-opacity:1;fill-rule:nonzero;stroke:none"
             d="m 987.34,2208.74 -136.34,78.71 -5.258,-9.11 136.336,-78.72 5.262,9.12" /><path
             id="path334"
             style="fill:#0f80cc;fill-opacity:1;fill-rule:nonzero;stroke:none"
             d="m 992.25,2217.25 -136.332,78.71 -5.266,-9.11 136.34,-78.72 5.258,9.12" /><path
             id="path336"
             style="fill:#0f80cc;fill-opacity:1;fill-rule:nonzero;stroke:none"
             d="m 997.168,2225.76 -136.34,78.71 -5.262,-9.11 136.336,-78.72 5.266,9.12" /><path
             id="path338"
             style="fill:#0f80cc;fill-opacity:1;fill-rule:nonzero;stroke:none"
             d="m 1002.08,2234.27 -136.334,78.71 -5.262,-9.11 136.336,-78.72 5.26,9.12" /><path
             id="path340"
             style="fill:#0f80cc;fill-opacity:1;fill-rule:nonzero;stroke:none"
             d="m 1007,2242.78 -136.34,78.71 -5.265,-9.11 136.335,-78.72 5.27,9.12" /><path
             id="path342"
             style="fill:#0f80cc;fill-opacity:1;fill-rule:nonzero;stroke:none"
             d="m 1011.91,2251.29 -136.34,78.71 -5.261,-9.11 136.341,-78.71 5.26,9.11" /><path
             id="path344"
             style="fill:#0f80cc;fill-opacity:1;fill-rule:nonzero;stroke:none"
             d="m 1020.72,2266.55 -135.782,78.39 -10.622,-18.39 135.784,-78.4 10.62,18.4" /></g></g><path
         id="path346"
         style="fill:#0f80cc;fill-opacity:1;fill-rule:nonzero;stroke:none"
         d="m 1419.79,2568.13 c 0.61,-1.12 1.16,-2.28 1.66,-3.49 0.62,-1.56 1.16,-3.19 1.58,-4.89 0.9,-3.52 1.34,-7.33 1.29,-11.4 -0.04,-3.79 -0.52,-7.6 -1.37,-11.39 -0.52,-2.3 -1.18,-4.58 -1.97,-6.84 -0.64,-1.83 -1.36,-3.64 -2.17,-5.42 -0.72,-1.63 -1.52,-3.23 -2.37,-4.82 -0.82,-1.5 -1.68,-2.98 -2.6,-4.44 -0.9,-1.42 -1.85,-2.81 -2.83,-4.19 -1,-1.36 -2.03,-2.7 -3.1,-4.01 -1.09,-1.33 -2.22,-2.62 -3.39,-3.87 -1.2,-1.3 -2.45,-2.55 -3.72,-3.77 -1.36,-1.27 -2.74,-2.49 -4.16,-3.67 -1.51,-1.27 -3.08,-2.46 -4.69,-3.6 -1.78,-1.28 -3.62,-2.47 -5.49,-3.59 -2.29,-1.36 -4.65,-2.6 -7.05,-3.69 -3.08,-1.41 -6.25,-2.59 -9.49,-3.52 -3.06,-0.87 -6.08,-1.48 -9,-1.85 -11.99,-1.47 -22.54,1.28 -30.27,7.27 l -57.39,46.39 7.28,8.31 c 7.48,-7.44 18.41,-11.76 31.43,-11.76 3.17,0.01 6.47,0.26 9.87,0.8 32.84,5.21 62.92,34.06 66.96,64.33 l 0.31,2.8 21.83,-19.22 c 1.23,-0.95 2.39,-1.99 3.47,-3.12 l 1.9,-2.13 1.8,-2.42 c 0.6,-0.89 1.16,-1.82 1.68,-2.8 v 0" /><g
         id="g348"><g
           clip-path="url(#clipPath354)"
           id="g350"><path
             id="path356"
             style="fill:#0f80cc;fill-opacity:1;fill-rule:nonzero;stroke:none"
             d="m 1384.28,2464.07 -113.14,65.32 -4.46,-7.72 113.14,-65.33 4.46,7.73" /><path
             id="path358"
             style="fill:#0f80cc;fill-opacity:1;fill-rule:nonzero;stroke:none"
             d="m 1389.12,2472.45 -113.14,65.32 -4.46,-7.72 113.14,-65.32 4.46,7.72" /><path
             id="path360"
             style="fill:#0f80cc;fill-opacity:1;fill-rule:nonzero;stroke:none"
             d="m 1393.96,2480.84 -113.13,65.32 -4.46,-7.71 113.14,-65.33 4.45,7.72" /><path
             id="path362"
             style="fill:#0f80cc;fill-opacity:1;fill-rule:nonzero;stroke:none"
             d="m 1398.81,2489.23 -113.15,65.32 -4.45,-7.72 113.14,-65.32 4.46,7.72" /><path
             id="path364"
             style="fill:#0f80cc;fill-opacity:1;fill-rule:nonzero;stroke:none"
             d="m 1403.65,2497.61 -113.14,65.33 -4.46,-7.72 113.14,-65.33 4.46,7.72" /><path
             id="path366"
             style="fill:#0f80cc;fill-opacity:1;fill-rule:nonzero;stroke:none"
             d="m 1408.49,2506 -113.14,65.32 -4.46,-7.71 113.14,-65.32 4.46,7.71" /><path
             id="path368"
             style="fill:#0f80cc;fill-opacity:1;fill-rule:nonzero;stroke:none"
             d="m 1413.33,2514.39 -113.13,65.32 -4.46,-7.71 113.14,-65.33 4.45,7.72" /><path
             id="path370"
             style="fill:#0f80cc;fill-opacity:1;fill-rule:nonzero;stroke:none"
             d="m 1418.18,2522.78 -113.14,65.32 -4.46,-7.72 113.14,-65.33 4.46,7.73" /><path
             id="path372"
             style="fill:#0f80cc;fill-opacity:1;fill-rule:nonzero;stroke:none"
             d="m 1423.02,2531.17 -113.14,65.32 -4.46,-7.72 113.14,-65.32 4.46,7.72" /><path
             id="path374"
             style="fill:#0f80cc;fill-opacity:1;fill-rule:nonzero;stroke:none"
             d="m 1427.86,2539.55 -113.14,65.33 -4.46,-7.72 113.14,-65.33 4.46,7.72" /><path
             id="path376"
             style="fill:#0f80cc;fill-opacity:1;fill-rule:nonzero;stroke:none"
             d="m 1432.71,2547.94 -113.14,65.33 -4.47,-7.73 113.15,-65.32 4.46,7.72" /><path
             id="path378"
             style="fill:#0f80cc;fill-opacity:1;fill-rule:nonzero;stroke:none"
             d="m 1437.55,2556.33 -113.15,65.32 -4.45,-7.72 113.14,-65.32 4.46,7.72" /><path
             id="path380"
             style="fill:#0f80cc;fill-opacity:1;fill-rule:nonzero;stroke:none"
             d="m 1442.39,2564.72 -113.14,65.32 -4.46,-7.72 113.14,-65.32 4.46,7.72" /><path
             id="path382"
             style="fill:#0f80cc;fill-opacity:1;fill-rule:nonzero;stroke:none"
             d="m 1444.69,2568.69 -113.15,65.33 -4.46,-7.72 113.15,-65.33 4.46,7.72" /></g></g><path
         id="path384"
         style="fill:#0f80cc;fill-opacity:1;fill-rule:nonzero;stroke:none"
         d="m 1166.88,2728.94 c -0.87,-1.62 -1.81,-3.22 -2.81,-4.79 -0.96,-1.54 -1.99,-3.05 -3.06,-4.53 -1.07,-1.48 -2.18,-2.93 -3.35,-4.35 -1.17,-1.43 -2.4,-2.84 -3.67,-4.2 -1.29,-1.39 -2.64,-2.75 -4.03,-4.07 -1.46,-1.38 -2.95,-2.7 -4.49,-3.97 -1.64,-1.36 -3.31,-2.65 -5.05,-3.88 -1.91,-1.37 -3.89,-2.66 -5.91,-3.85 -2.43,-1.46 -4.94,-2.76 -7.49,-3.93 -3.1,-1.42 -6.28,-2.62 -9.52,-3.58 -3.48,-1.04 -6.87,-1.74 -10.13,-2.15 -12.25,-1.5 -22.95,1.26 -30.77,7.32 l -43.27,32.95 1.31,1.5 c 7.94,-6.62 18.83,-10.41 31.65,-10.41 3.8,0 7.78,0.34 11.89,1.03 36.9,6.19 70.95,38.76 76.02,72.64 0.23,1.56 0.39,3.1 0.49,4.61 l 7.02,-5.36 1.44,-1.18 2.06,-1.95 1.93,-2.17 1.81,-2.45 c 0.62,-0.92 1.19,-1.87 1.71,-2.85 0.61,-1.13 1.17,-2.3 1.67,-3.53 0.65,-1.61 1.2,-3.3 1.65,-5.06 0.95,-3.79 1.42,-7.91 1.31,-12.33 -0.1,-3.71 -0.58,-7.45 -1.43,-11.18 -1,-4.42 -2.49,-8.81 -4.42,-13.11 -0.78,-1.74 -1.64,-3.47 -2.56,-5.17 v 0" /><g
         id="g386"><g
           clip-path="url(#clipPath392)"
           id="g388"><path
             id="path394"
             style="fill:#0f80cc;fill-opacity:1;fill-rule:nonzero;stroke:none"
             d="m 1132.5,2669.34 -98.19,56.69 -5.01,-8.69 98.18,-56.68 5.02,8.68" /><path
             id="path396"
             style="fill:#0f80cc;fill-opacity:1;fill-rule:nonzero;stroke:none"
             d="m 1137.62,2678.21 -98.19,56.69 -5.01,-8.69 98.18,-56.69 5.02,8.69" /><path
             id="path398"
             style="fill:#0f80cc;fill-opacity:1;fill-rule:nonzero;stroke:none"
             d="m 1142.74,2687.08 -98.18,56.69 -5.02,-8.68 98.18,-56.7 5.02,8.69" /><path
             id="path400"
             style="fill:#0f80cc;fill-opacity:1;fill-rule:nonzero;stroke:none"
             d="m 1147.86,2695.95 -98.19,56.69 -5.01,-8.69 98.18,-56.69 5.02,8.69" /><path
             id="path402"
             style="fill:#0f80cc;fill-opacity:1;fill-rule:nonzero;stroke:none"
             d="m 1152.98,2704.82 -98.19,56.69 -5.01,-8.69 98.18,-56.68 5.02,8.68" /><path
             id="path404"
             style="fill:#0f80cc;fill-opacity:1;fill-rule:nonzero;stroke:none"
             d="m 1158.1,2713.69 -98.18,56.69 -5.02,-8.69 98.19,-56.69 5.01,8.69" /><path
             id="path406"
             style="fill:#0f80cc;fill-opacity:1;fill-rule:nonzero;stroke:none"
             d="m 1163.22,2722.56 -98.18,56.69 -5.02,-8.69 98.19,-56.68 5.01,8.68" /><path
             id="path408"
             style="fill:#0f80cc;fill-opacity:1;fill-rule:nonzero;stroke:none"
             d="m 1168.34,2731.43 -98.18,56.69 -5.02,-8.69 98.19,-56.69 5.01,8.69" /><path
             id="path410"
             style="fill:#0f80cc;fill-opacity:1;fill-rule:nonzero;stroke:none"
             d="m 1173.47,2740.3 -98.19,56.68 -5.02,-8.68 98.19,-56.69 5.02,8.69" /><path
             id="path412"
             style="fill:#0f80cc;fill-opacity:1;fill-rule:nonzero;stroke:none"
             d="m 1178.58,2749.17 -98.18,56.69 -5.01,-8.69 98.18,-56.69 5.01,8.69" /><path
             id="path414"
             style="fill:#0f80cc;fill-opacity:1;fill-rule:nonzero;stroke:none"
             d="m 1183.71,2758.04 -98.19,56.68 -5.02,-8.68 98.19,-56.69 5.02,8.69" /><path
             id="path416"
             style="fill:#0f80cc;fill-opacity:1;fill-rule:nonzero;stroke:none"
             d="m 1188.83,2766.91 -98.19,56.69 -5.01,-8.69 98.18,-56.69 5.02,8.69" /><path
             id="path418"
             style="fill:#0f80cc;fill-opacity:1;fill-rule:nonzero;stroke:none"
             d="m 1193.88,2775.66 -97.91,56.52 -7.69,-13.32 97.9,-56.53 7.7,13.33" /></g></g><path
         id="path420"
         style="fill:#0f80cc;fill-opacity:1;fill-rule:nonzero;stroke:none"
         d="m 483.254,1713.1 c 9.566,-7.16 15.187,-19.59 14.418,-35.34 -1.387,-30.16 -25.656,-60.96 -54.086,-68.59 -2.16,-0.6 -4.285,-1.03 -6.363,-1.32 -10.754,-1.51 -20.274,0.88 -27.52,6.31 l -57.773,46.01 2.75,3.68 c 5.933,-4.76 13.601,-7.8 22.601,-8.59 2.254,-0.19 4.606,-0.25 7.028,-0.16 31.843,1.15 64.929,27.71 73.738,59.18 1.891,6.68 2.527,13.04 2.066,18.9 l 23.141,-20.08 v 0" /><g
         id="g422"><g
           clip-path="url(#clipPath428)"
           id="g424"><path
             id="path430"
             style="fill:#0f80cc;fill-opacity:1;fill-rule:nonzero;stroke:none"
             d="m 459.516,1594.55 -110.508,61.25 -4.692,-8.45 110.512,-61.26 4.688,8.46" /><path
             id="path432"
             style="fill:#0f80cc;fill-opacity:1;fill-rule:nonzero;stroke:none"
             d="m 464.258,1603.09 -110.512,61.26 -4.687,-8.46 110.507,-61.25 4.692,8.45" /><path
             id="path434"
             style="fill:#0f80cc;fill-opacity:1;fill-rule:nonzero;stroke:none"
             d="m 468.992,1611.64 -110.512,61.25 -4.687,-8.45 110.516,-61.26 4.683,8.46" /><path
             id="path436"
             style="fill:#0f80cc;fill-opacity:1;fill-rule:nonzero;stroke:none"
             d="m 473.73,1620.18 -110.511,61.26 -4.688,-8.46 110.512,-61.26 4.687,8.46" /><path
             id="path438"
             style="fill:#0f80cc;fill-opacity:1;fill-rule:nonzero;stroke:none"
             d="m 478.469,1628.72 -110.516,61.26 -4.687,-8.45 110.511,-61.26 4.692,8.45" /><path
             id="path440"
             style="fill:#0f80cc;fill-opacity:1;fill-rule:nonzero;stroke:none"
             d="m 483.199,1637.27 -110.508,61.26 -4.695,-8.46 110.516,-61.26 4.687,8.46" /><path
             id="path442"
             style="fill:#0f80cc;fill-opacity:1;fill-rule:nonzero;stroke:none"
             d="m 487.934,1645.81 -110.508,61.26 -4.692,-8.45 110.512,-61.26 4.688,8.45" /><path
             id="path444"
             style="fill:#0f80cc;fill-opacity:1;fill-rule:nonzero;stroke:none"
             d="m 492.676,1654.36 -110.512,61.26 -4.687,-8.46 110.507,-61.26 4.692,8.46" /><path
             id="path446"
             style="fill:#0f80cc;fill-opacity:1;fill-rule:nonzero;stroke:none"
             d="m 497.41,1662.9 -110.512,61.26 -4.687,-8.46 110.516,-61.25 4.683,8.45" /><path
             id="path448"
             style="fill:#0f80cc;fill-opacity:1;fill-rule:nonzero;stroke:none"
             d="m 502.148,1671.45 -110.511,61.25 -4.688,-8.45 110.512,-61.26 4.687,8.46" /><path
             id="path450"
             style="fill:#0f80cc;fill-opacity:1;fill-rule:nonzero;stroke:none"
             d="m 506.879,1679.99 -110.512,61.26 -4.687,-8.46 110.511,-61.26 4.688,8.46" /><path
             id="path452"
             style="fill:#0f80cc;fill-opacity:1;fill-rule:nonzero;stroke:none"
             d="m 511.617,1688.54 -110.508,61.25 -4.691,-8.45 110.512,-61.26 4.687,8.46" /><path
             id="path454"
             style="fill:#0f80cc;fill-opacity:1;fill-rule:nonzero;stroke:none"
             d="m 516.352,1697.08 -110.508,61.26 -4.692,-8.46 110.512,-61.26 4.688,8.46" /><path
             id="path456"
             style="fill:#0f80cc;fill-opacity:1;fill-rule:nonzero;stroke:none"
             d="m 519.648,1703.03 -109.492,60.69 -5.707,-10.3 109.496,-60.69 5.703,10.3" /></g></g><path
         id="path458"
         style="fill:#0f80cc;fill-opacity:1;fill-rule:nonzero;stroke:none"
         d="m 844.949,923.09 c 0.133,29.492 23.047,55.531 51.274,58.199 28.273,2.703 51.293,-19.078 51.332,-48.707 0.043,-29.75 -23.043,-56 -51.496,-58.57 -28.383,-2.563 -51.231,19.449 -51.11,49.078 v 0 0" /><path
         id="path460"
         style="fill:#0f80cc;fill-opacity:1;fill-rule:nonzero;stroke:none"
         d="m 711.98,1184.03 c -0.359,-30.14 -24.16,-57.06 -53.093,-60.02 -28.86,-2.95 -51.754,19.06 -51.219,49.06 0.523,29.92 24.156,56.58 52.84,59.65 28.754,3.1 51.832,-18.68 51.472,-48.69 v 0 0" /><path
         id="path462"
         style="fill:#0f80cc;fill-opacity:1;fill-rule:nonzero;stroke:none"
         d="m 1089.17,1223.62 c -0.28,30.48 23.71,57.71 53.65,60.91 30.02,3.23 54.81,-18.86 55.3,-49.47 0.46,-30.72 -23.7,-58.2 -53.91,-61.29 -30.14,-3.1 -54.75,19.28 -55.04,49.85 v 0 0" /><path
         id="path464"
         style="fill:#0f80cc;fill-opacity:1;fill-rule:nonzero;stroke:none"
         d="m 834.363,1196.88 c 0.18,35.29 28.02,66.79 62.282,70.5 34.371,3.7 62.363,-21.95 62.449,-57.42 0.07,-35.6 -28.016,-67.48 -62.641,-71.01 -34.512,-3.52 -62.269,22.48 -62.09,57.93 v 0 0" /><path
         id="path466"
         style="fill:#0f80cc;fill-opacity:1;fill-rule:nonzero;stroke:none"
         d="m 482.219,1422.15 c -0.754,-29.69 -24.582,-56.46 -53.172,-59.73 -28.5,-3.28 -50.805,18.13 -49.887,47.68 0.918,29.45 24.574,56 52.914,59.37 28.41,3.4 50.891,-17.75 50.145,-47.32 v 0 0" /><path
         id="path468"
         style="fill:#0f80cc;fill-opacity:1;fill-rule:nonzero;stroke:none"
         d="m 624.746,1544.67 c 28.5,3.5 49.496,-16.82 47.899,-48.2 -1.715,-33.93 -29.231,-67.82 -61.336,-75.49 -2.172,-0.53 -4.317,-0.92 -6.411,-1.17 -28.769,-3.54 -49.703,17.15 -47.863,48.61 1.973,33.69 29.219,67.21 60.977,75.02 2.285,0.55 4.539,0.96 6.734,1.23 v 0" /><path
         id="path470"
         style="fill:#0f80cc;fill-opacity:1;fill-rule:nonzero;stroke:none"
         d="m 1332.7,1521.6 c -0.73,30.55 23.65,58.22 54.52,61.89 30.94,3.7 56.84,-18.08 57.76,-48.76 0.93,-30.78 -23.64,-58.69 -54.78,-62.27 -31.07,-3.55 -56.78,18.5 -57.5,49.14 v 0 0" /><path
         id="path472"
         style="fill:#0f80cc;fill-opacity:1;fill-rule:nonzero;stroke:none"
         d="m 1074.13,1491.37 c -0.32,36.44 28.81,69.41 65.19,73.77 36.47,4.37 66.62,-21.66 67.22,-58.28 0.6,-36.8 -28.8,-70.14 -65.57,-74.32 -36.65,-4.18 -66.53,22.23 -66.84,58.83 v 0 0" /><path
         id="path474"
         style="fill:#0f80cc;fill-opacity:1;fill-rule:nonzero;stroke:none"
         d="m 821.387,1461.82 c 0.246,42.22 34.062,80.37 75.683,85.39 41.77,5.02 75.84,-25.18 75.961,-67.66 0.121,-42.69 -34.047,-81.34 -76.191,-86.13 -41.981,-4.77 -75.703,25.96 -75.453,68.4 v 0 0" /><path
         id="path476"
         style="fill:#0f80cc;fill-opacity:1;fill-rule:nonzero;stroke:none"
         d="m 737.148,1709.37 c -0.418,-38.98 -32.144,-74.63 -70.726,-79.48 -38.453,-4.81 -68.926,22.85 -68.195,61.62 0.734,38.59 32.14,73.81 70.285,78.83 38.269,5.05 69.054,-22.17 68.636,-60.97 v 0 0" /><path
         id="path478"
         style="fill:#0f80cc;fill-opacity:1;fill-rule:nonzero;stroke:none"
         d="m 1320.35,1784.35 c -0.77,32.9 25.9,63.05 59.65,67.48 33.84,4.44 62.17,-18.65 63.18,-51.7 1.01,-33.18 -25.88,-63.65 -59.96,-67.94 -34,-4.28 -62.09,19.12 -62.87,52.16 v 0 0" /><path
         id="path480"
         style="fill:#0f80cc;fill-opacity:1;fill-rule:nonzero;stroke:none"
         d="m 1064.65,1751.47 c -0.33,39.27 31.54,75.21 71.32,80.46 39.91,5.25 72.9,-22.35 73.57,-61.84 0.67,-39.65 -31.53,-76.05 -71.78,-81.1 -40.1,-5.03 -72.78,23.02 -73.11,62.48 v 0 0" /><path
         id="path482"
         style="fill:#0f80cc;fill-opacity:1;fill-rule:nonzero;stroke:none"
         d="m 869.973,1838.46 c 36.851,4.54 64.285,-20.53 62.746,-60.03 -1.571,-43.2 -37.117,-87.05 -79.188,-97.54 -3.238,-0.81 -6.418,-1.41 -9.527,-1.79 -37.149,-4.57 -64.453,21.11 -62.609,60.8 2.003,42.74 37.175,85.91 78.648,96.68 3.371,0.86 6.691,1.48 9.93,1.88 v 0" /><path
         id="path484"
         style="fill:#0f80cc;fill-opacity:1;fill-rule:nonzero;stroke:none"
         d="m 271.133,1894.01 c -1.055,-27.23 -23.582,-52.34 -50.278,-56.02 -26.625,-3.66 -47.187,15.43 -45.996,42.55 1.196,27.04 23.575,51.93 50.047,55.69 26.543,3.78 47.266,-15.09 46.227,-42.22 v 0 0" /><path
         id="path486"
         style="fill:#0f80cc;fill-opacity:1;fill-rule:nonzero;stroke:none"
         d="m 506.73,1926.95 c -0.851,-34.58 -29.441,-66.54 -63.757,-71.24 -34.219,-4.68 -60.981,19.53 -59.887,53.95 1.094,34.28 29.43,65.88 63.398,70.73 34.079,4.86 61.098,-19 60.246,-53.44 v 0 0" /><path
         id="path488"
         style="fill:#0f80cc;fill-opacity:1;fill-rule:nonzero;stroke:none"
         d="m 743.699,1960.61 c -0.414,-42.07 -33.426,-81.01 -73.586,-86.78 -40.015,-5.75 -71.711,23.68 -70.941,65.52 0.766,41.61 33.426,80.05 73.086,86.02 39.805,6.01 71.851,-22.89 71.441,-64.76 v 0 0" /><path
         id="path490"
         style="fill:#0f80cc;fill-opacity:1;fill-rule:nonzero;stroke:none"
         d="m 1566.5,2075.13 c -1.1,28.45 22.28,54.89 52.27,59.14 30.08,4.28 55.56,-15.32 56.84,-43.88 1.28,-28.65 -22.27,-55.33 -52.52,-59.49 -30.2,-4.15 -55.5,15.69 -56.59,44.23 v 0 0" /><path
         id="path492"
         style="fill:#0f80cc;fill-opacity:1;fill-rule:nonzero;stroke:none"
         d="m 1307.71,2038.95 c -0.82,35.46 28.35,68.34 65.26,73.6 37.03,5.29 68.03,-19.18 69.13,-54.81 1.1,-35.78 -28.34,-69.05 -65.66,-74.16 -37.19,-5.09 -67.92,19.76 -68.73,55.37 v 0 0" /><path
         id="path494"
         style="fill:#0f80cc;fill-opacity:1;fill-rule:nonzero;stroke:none"
         d="m 1054.67,2003.56 c -0.32,42.34 34.54,81.53 78.06,87.77 43.67,6.25 79.78,-23.01 80.53,-65.59 0.73,-42.79 -34.52,-82.53 -78.6,-88.54 -43.91,-5.98 -79.65,23.83 -79.99,66.36 v 0 0" /><path
         id="path496"
         style="fill:#0f80cc;fill-opacity:1;fill-rule:nonzero;stroke:none"
         d="m 847.484,2116.19 c 39.782,4.88 69.348,-21.51 67.77,-63.8 -1.719,-46.61 -40.68,-94.4 -86.746,-106.54 -3.883,-1.02 -7.684,-1.75 -11.399,-2.21 -40.214,-4.94 -69.668,22.23 -67.621,64.72 2.215,46.13 40.633,93.16 86.032,105.48 4.07,1.09 8.07,1.87 11.964,2.35 v 0" /><path
         id="path498"
         style="fill:#0f80cc;fill-opacity:1;fill-rule:nonzero;stroke:none"
         d="m 25.1758,2096.36 c 0.832,15.71 14.0273,30.33 29.5,32.69 15.5,2.35 27.4492,-8.48 26.668,-24.22 -0.7774,-15.78 -14.0352,-30.47 -29.5743,-32.8 -15.5312,-2.32 -27.4257,8.59 -26.5937,24.33 v 0 0" /><path
         id="path500"
         style="fill:#0f80cc;fill-opacity:1;fill-rule:nonzero;stroke:none"
         d="m 275.543,2132.13 c -0.918,-23.81 -20.91,-46.02 -44.598,-49.55 -23.632,-3.51 -41.902,12.93 -40.867,36.66 1.039,23.66 20.902,45.7 44.414,49.3 23.571,3.6 41.973,-12.68 41.051,-36.41 v 0 0" /><path
         id="path502"
         style="fill:#0f80cc;fill-opacity:1;fill-rule:nonzero;stroke:none"
         d="m 506.527,2166.96 c -0.75,-30.23 -26.101,-58.49 -56.547,-63 -30.355,-4.5 -54.136,16.34 -53.187,46.45 0.945,30 26.098,57.97 56.27,62.59 30.238,4.64 54.218,-15.93 53.464,-46.04 v 0 0" /><path
         id="path504"
         style="fill:#0f80cc;fill-opacity:1;fill-rule:nonzero;stroke:none"
         d="m 750.023,2203.67 c -0.418,-40.87 -34.668,-79.13 -76.339,-85.28 -41.528,-6.13 -74.426,22.02 -73.633,62.67 0.777,40.45 34.656,78.21 75.816,84.56 41.321,6.37 74.582,-21.28 74.156,-61.95 v 0 0" /><path
         id="path506"
         style="fill:#0f80cc;fill-opacity:1;fill-rule:nonzero;stroke:none"
         d="m 1798.12,2359.71 c -0.79,15.05 11.75,29.23 28.03,31.7 16.32,2.48 30.23,-7.71 31.07,-22.79 0.85,-15.11 -11.75,-29.37 -28.11,-31.82 -16.35,-2.44 -30.2,7.83 -30.99,22.91 v 0 0" /><path
         id="path508"
         style="fill:#0f80cc;fill-opacity:1;fill-rule:nonzero;stroke:none"
         d="m 1562.26,2326.14 c -0.97,24.85 19.77,48.23 46.36,52.29 26.65,4.07 49.21,-12.78 50.32,-37.72 1.11,-25.01 -19.75,-48.58 -46.56,-52.57 -26.75,-3.97 -49.17,13.06 -50.12,38 v 0 0" /><path
         id="path510"
         style="fill:#0f80cc;fill-opacity:1;fill-rule:nonzero;stroke:none"
         d="m 1308.62,2287.89 c -0.72,30.99 25.16,60.09 57.89,65.11 32.84,5.02 60.28,-16.03 61.23,-47.15 0.95,-31.23 -25.14,-60.63 -58.19,-65.53 -32.97,-4.89 -60.2,16.47 -60.93,47.57 v 0 0" /><path
         id="path512"
         style="fill:#0f80cc;fill-opacity:1;fill-rule:nonzero;stroke:none"
         d="m 1052.75,2249.32 c -0.32,41.11 34.05,79.61 76.92,86.22 43.02,6.62 78.6,-21.33 79.31,-62.66 0.72,-41.55 -34.01,-80.59 -77.43,-86.99 -43.26,-6.38 -78.47,22.11 -78.8,63.43 v 0 0" /><path
         id="path514"
         style="fill:#0f80cc;fill-opacity:1;fill-rule:nonzero;stroke:none"
         d="m 971.734,2290.29 2.172,-1.79 -2.172,1.79 z" /><path
         id="path516"
         style="fill:#0f80cc;fill-opacity:1;fill-rule:nonzero;stroke:none"
         d="m 870.309,2344.51 c 38.66,4.76 67.289,-20.38 65.781,-60.99 -1.656,-45.27 -40.082,-92.3 -85.559,-104.72 -4.207,-1.15 -8.32,-1.95 -12.316,-2.44 -39.07,-4.8 -67.524,21.02 -65.543,61.9 2.074,44.78 39.949,91.05 84.754,103.65 4.39,1.23 8.695,2.1 12.883,2.6 v 0" /><path
         id="path518"
         style="fill:#0f80cc;fill-opacity:1;fill-rule:nonzero;stroke:none"
         d="m 0.046875,2318.38 c 0.949219,16.94 15.386725,32.88 32.269525,35.64 16.918,2.75 29.9297,-8.76 29.0391,-25.75 -0.8828,-17.02 -15.3789,-33.05 -32.3555,-35.76 -16.9453,-2.72 -29.894531,8.88 -28.953125,25.87 v 0 0" /><path
         id="path520"
         style="fill:#0f80cc;fill-opacity:1;fill-rule:nonzero;stroke:none"
         d="m 284.516,2364.29 c -0.899,-23.15 -20.606,-44.99 -43.969,-48.72 -23.317,-3.71 -41.359,12.04 -40.348,35.11 1.008,23.01 20.598,44.69 43.793,48.48 23.254,3.8 41.414,-11.78 40.524,-34.87 v 0 0" /><path
         id="path522"
         style="fill:#0f80cc;fill-opacity:1;fill-rule:nonzero;stroke:none"
         d="m 512.355,2401.07 c -0.734,-29.39 -25.73,-57.17 -55.75,-61.94 -29.941,-4.76 -53.402,15.2 -52.488,44.47 0.926,29.17 25.723,56.67 55.485,61.55 29.828,4.89 53.48,-14.8 52.753,-44.08 v 0 0" /><path
         id="path524"
         style="fill:#0f80cc;fill-opacity:1;fill-rule:nonzero;stroke:none"
         d="m 745.023,2438.63 c -0.378,-35.73 -30.746,-69.57 -67.703,-75.43 -36.84,-5.83 -66.058,18.39 -65.386,53.94 0.664,35.41 30.746,68.85 67.296,74.86 36.672,6.02 66.18,-17.8 65.793,-53.37 v 0 0" /><path
         id="path526"
         style="fill:#0f80cc;fill-opacity:1;fill-rule:nonzero;stroke:none"
         d="m 1808.24,2610.23 c -0.98,18.06 14.29,35.29 34.14,38.52 19.9,3.23 36.91,-8.77 37.97,-26.87 1.08,-18.13 -14.27,-35.46 -34.24,-38.65 -19.94,-3.19 -36.88,8.92 -37.87,27 v 0 0" /><path
         id="path528"
         style="fill:#0f80cc;fill-opacity:1;fill-rule:nonzero;stroke:none"
         d="m 1552.84,2569.02 c -0.93,24.12 19.5,47.09 45.7,51.37 26.25,4.29 48.44,-11.8 49.52,-36 1.08,-24.28 -19.49,-47.44 -45.87,-51.65 -26.34,-4.2 -48.41,12.08 -49.35,36.28 v 0 0" /><path
         id="path530"
         style="fill:#0f80cc;fill-opacity:1;fill-rule:nonzero;stroke:none"
         d="m 1418.11,2570.93 1.68,-2.8 c -0.52,0.98 -1.08,1.91 -1.68,2.8 v 0" /><g
         id="g532"><g
           clip-path="url(#clipPath538)"
           id="g534"><path
             id="path540"
             style="fill:#0f80cc;fill-opacity:1;fill-rule:nonzero;stroke:none"
             d="m 1419.12,2567.1 -1.8,1.04 -0.6,-1.04 1.8,-1.04 0.6,1.04" /><path
             id="path542"
             style="fill:#0f80cc;fill-opacity:1;fill-rule:nonzero;stroke:none"
             d="m 1419.78,2568.24 -1.8,1.04 -0.6,-1.04 1.8,-1.04 0.6,1.04" /><path
             id="path544"
             style="fill:#0f80cc;fill-opacity:1;fill-rule:nonzero;stroke:none"
             d="m 1420.44,2569.38 -1.8,1.04 -0.6,-1.04 1.8,-1.03 0.6,1.03" /><path
             id="path546"
             style="fill:#0f80cc;fill-opacity:1;fill-rule:nonzero;stroke:none"
             d="m 1421.1,2570.53 -1.8,1.04 -0.6,-1.04 1.8,-1.04 0.6,1.04" /><path
             id="path548"
             style="fill:#0f80cc;fill-opacity:1;fill-rule:nonzero;stroke:none"
             d="m 1421.76,2571.67 -1.79,1.04 -0.6,-1.04 1.79,-1.04 0.6,1.04" /></g></g><path
         id="path550"
         style="fill:#0f80cc;fill-opacity:1;fill-rule:nonzero;stroke:none"
         d="m 1323.36,2632.21 c 25.01,3.08 43.89,-12.28 43.55,-37.5 -0.3,-28.33 -24.74,-58.3 -54.4,-66.82 -3.06,-0.87 -6.08,-1.48 -8.99,-1.84 -25.28,-3.1 -44.18,12.52 -43.68,37.87 0.46,28.17 24.72,57.85 54.2,66.35 3.17,0.93 6.29,1.57 9.32,1.94 v 0" /><path
         id="path552"
         style="fill:#0f80cc;fill-opacity:1;fill-rule:nonzero;stroke:none"
         d="m 1058.53,2489.23 c -0.3,35.96 30.21,70.05 68.25,76.31 38.17,6.26 69.7,-17.81 70.31,-53.95 0.61,-36.29 -30.18,-70.79 -68.67,-76.89 -38.35,-6.07 -69.59,18.41 -69.89,54.53 v 0 0" /><path
         id="path554"
         style="fill:#0f80cc;fill-opacity:1;fill-rule:nonzero;stroke:none"
         d="m 867.5,2574.66 c 33.809,4.16 58.77,-17.41 57.418,-52.56 -1.449,-39.57 -35.527,-81.19 -75.836,-92.62 -4.082,-1.16 -8.082,-1.97 -11.957,-2.45 -34.141,-4.19 -58.926,17.88 -57.254,53.31 1.852,39.17 35.481,80.2 75.281,91.74 4.211,1.23 8.34,2.09 12.348,2.58 v 0" /><path
         id="path556"
         style="fill:#0f80cc;fill-opacity:1;fill-rule:nonzero;stroke:none"
         d="m 15.543,2542.43 c 0.8203,14.84 13.6367,28.96 28.6367,31.55 15.0312,2.61 26.5976,-7.33 25.8203,-22.2 -0.7773,-14.91 -13.6484,-29.09 -28.7266,-31.66 -15.0429,-2.57 -26.5625,7.43 -25.7304,22.31 v 0 0" /><path
         id="path558"
         style="fill:#0f80cc;fill-opacity:1;fill-rule:nonzero;stroke:none"
         d="m 289.078,2589.4 c -0.789,-20.26 -18.277,-39.58 -39.019,-43.11 -20.704,-3.52 -36.746,10.05 -35.86,30.25 0.879,20.16 18.266,39.36 38.883,42.94 20.645,3.58 36.781,-9.86 35.996,-30.08 v 0 0" /><path
         id="path560"
         style="fill:#0f80cc;fill-opacity:1;fill-rule:nonzero;stroke:none"
         d="m 512.656,2627.8 c -0.644,-25.7 -22.816,-50.27 -49.457,-54.8 -26.574,-4.5 -47.429,12.68 -46.629,38.3 0.801,25.54 22.821,49.91 49.246,54.5 26.493,4.61 47.497,-12.37 46.84,-38 v 0 0" /><path
         id="path562"
         style="fill:#0f80cc;fill-opacity:1;fill-rule:nonzero;stroke:none"
         d="m 740.902,2667 c -0.351,-31.23 -27.285,-61.17 -60.066,-66.71 -32.688,-5.54 -58.641,15.31 -58.066,46.42 0.574,31.01 27.281,60.62 59.746,66.28 32.55,5.67 58.73,-14.86 58.386,-45.99 v 0 0" /><path
         id="path564"
         style="fill:#0f80cc;fill-opacity:1;fill-rule:nonzero;stroke:none"
         d="m 1798.81,2848.7 c -0.86,15.78 12.69,31.01 30.29,34.06 17.63,3.05 32.69,-7.28 33.62,-23.08 0.93,-15.85 -12.67,-31.16 -30.37,-34.18 -17.67,-3.01 -32.67,7.39 -33.54,23.2 v 0 0" /><path
         id="path566"
         style="fill:#0f80cc;fill-opacity:1;fill-rule:nonzero;stroke:none"
         d="m 1548.38,2805.69 c -0.82,21.1 17.31,41.42 40.55,45.45 23.27,4.03 42.93,-9.8 43.87,-30.95 0.94,-21.21 -17.3,-41.68 -40.69,-45.66 -23.34,-3.97 -42.91,10.01 -43.73,31.16 v 0 0" /><path
         id="path568"
         style="fill:#0f80cc;fill-opacity:1;fill-rule:nonzero;stroke:none"
         d="m 1303.3,2763.6 c -0.62,26.33 22.02,51.63 50.64,56.6 28.68,4.99 52.63,-12.31 53.43,-38.73 0.8,-26.5 -22.01,-52.03 -50.86,-56.93 -28.79,-4.88 -52.58,12.64 -53.21,39.06 v 0 0" /><path
         id="path570"
         style="fill:#0f80cc;fill-opacity:1;fill-rule:nonzero;stroke:none"
         d="m 1087.59,2830.27 c 25.91,3.18 45.05,-12.62 44.45,-38.85 -0.79,-29.73 -26.67,-61.38 -57.8,-70.62 -3.47,-1.02 -6.87,-1.73 -10.14,-2.14 -26.09,-3.2 -45.14,12.93 -44.3,39.2 0.95,29.57 26.65,60.93 57.44,70.21 3.54,1.07 7.01,1.8 10.35,2.2 v 0" /><path
         id="path572"
         style="fill:#0f80cc;fill-opacity:1;fill-rule:nonzero;stroke:none"
         d="m 828.492,2682.05 c 0.219,36.52 31.668,71.48 70.375,78.24 38.836,6.79 70.508,-17.33 70.621,-54.03 0.102,-36.86 -31.656,-72.25 -70.82,-78.86 -39.023,-6.58 -70.387,17.96 -70.176,54.65 v 0 0" /><path
         id="path574"
         style="fill:#0f80cc;fill-opacity:1;fill-rule:nonzero;stroke:none"
         d="m 30.3164,2760.48 c 0.7227,13.01 12.1055,25.52 25.4375,27.95 13.3477,2.45 23.6328,-6.12 22.9492,-19.15 -0.6836,-13.06 -12.1015,-25.62 -25.4961,-28.03 -13.3711,-2.42 -23.6172,6.2 -22.8906,19.23 v 0 0" /><path
         id="path576"
         style="fill:#0f80cc;fill-opacity:1;fill-rule:nonzero;stroke:none"
         d="m 293.922,2808.4 c -0.699,-17.74 -16.211,-34.84 -34.629,-38.17 -18.391,-3.32 -32.648,8.38 -31.883,26.09 0.77,17.66 16.207,34.66 34.524,38.02 18.343,3.35 32.679,-8.23 31.988,-25.94 v 0 0" /><path
         id="path578"
         style="fill:#0f80cc;fill-opacity:1;fill-rule:nonzero;stroke:none"
         d="m 513.484,2848.32 c -0.562,-22.5 -20.242,-44.25 -43.89,-48.5 -23.598,-4.25 -42.129,10.55 -41.434,33 0.688,22.36 20.246,43.95 43.727,48.25 23.527,4.33 42.176,-10.31 41.597,-32.75 v 0 0" /><path
         id="path580"
         style="fill:#0f80cc;fill-opacity:1;fill-rule:nonzero;stroke:none"
         d="m 737.543,2889.05 c -0.316,-27.34 -24.203,-53.82 -53.297,-59.04 -29.008,-5.21 -52.062,12.74 -51.574,39.97 0.492,27.16 24.207,53.39 53.047,58.7 28.91,5.32 52.136,-12.38 51.824,-39.63 v 0 0" /><path
         id="path582"
         style="fill:#0f80cc;fill-opacity:1;fill-rule:nonzero;stroke:none"
         d="m 1789.3,3080.26 c -0.76,13.79 11.27,27.27 26.88,30.12 15.63,2.87 28.97,-6 29.78,-19.82 0.81,-13.85 -11.25,-27.39 -26.94,-30.22 -15.66,-2.84 -28.96,6.1 -29.72,19.92 v 0 0" /><path
         id="path584"
         style="fill:#0f80cc;fill-opacity:1;fill-rule:nonzero;stroke:none"
         d="m 1543.58,3035.59 c -0.72,18.45 15.38,36.44 35.98,40.21 20.65,3.79 38.07,-8.11 38.89,-26.6 0.81,-18.54 -15.36,-36.65 -36.1,-40.38 -20.69,-3.73 -38.03,8.27 -38.77,26.77 v 0 0" /><path
         id="path586"
         style="fill:#0f80cc;fill-opacity:1;fill-rule:nonzero;stroke:none"
         d="m 1303.03,2991.85 c -0.55,23.04 19.54,45.44 44.94,50.1 25.45,4.68 46.68,-10.21 47.37,-33.31 0.69,-23.18 -19.53,-45.76 -45.13,-50.36 -25.53,-4.6 -46.63,10.47 -47.18,33.57 v 0 0" /><path
         id="path588"
         style="fill:#0f80cc;fill-opacity:1;fill-rule:nonzero;stroke:none"
         d="m 1067.45,2949.03 c -0.26,27.54 23.8,54.27 53.77,59.79 30.06,5.52 54.85,-12.32 55.29,-39.96 0.43,-27.75 -23.78,-54.72 -54.03,-60.16 -30.18,-5.41 -54.78,12.68 -55.03,40.33 v 0 0" /><path
         id="path590"
         style="fill:#0f80cc;fill-opacity:1;fill-rule:nonzero;stroke:none"
         d="m 836.711,2907.08 c 0.168,31.99 28.094,62.94 62.473,69.28 34.484,6.36 62.578,-14.41 62.656,-46.53 0.074,-32.26 -28.09,-63.55 -62.832,-69.78 -34.621,-6.19 -62.477,14.92 -62.297,47.03 v 0 0" /><path
         id="path592"
         style="fill:#0f80cc;fill-opacity:1;fill-rule:nonzero;stroke:none"
         d="m 1591.37,1819.2 c -0.84,21.4 16.49,41.05 38.72,43.95 22.28,2.9 41.14,-12.1 42.08,-33.56 0.95,-21.52 -16.46,-41.31 -38.84,-44.15 -22.35,-2.84 -41.12,12.3 -41.96,33.76 v 0 0" /><path
         id="path594"
         style="fill:#0f80cc;fill-opacity:1;fill-rule:nonzero;stroke:none"
         d="m 397.938,1765.4 c 24.949,3.51 43.375,-13.95 42.023,-41.66 -1.387,-30.16 -25.652,-60.95 -54.086,-68.6 -2.16,-0.59 -4.289,-1.03 -6.355,-1.32 -25.086,-3.52 -43.45,14.2 -41.938,42.02 1.555,29.91 25.641,60.41 53.82,68.2 2.215,0.61 4.403,1.07 6.536,1.36 v 0" /><path
         id="path596"
         style="fill:#0f80cc;fill-opacity:1;fill-rule:nonzero;stroke:none"
         d="m 199.348,1650.6 c 3.257,15.32 18.402,26.52 33.832,25.05 15.457,-1.47 25.394,-15.1 22.172,-30.46 -3.223,-15.39 -18.426,-26.65 -33.926,-25.13 -15.481,1.51 -25.352,15.2 -22.078,30.54 v 0 0" /><path
         id="path598"
         style="fill:#0f80cc;fill-opacity:1;fill-rule:nonzero;stroke:none"
         d="m 51.5156,1851.69 c 0.8282,15.71 14.0274,30.33 29.5,32.69 15.5,2.35 27.4454,-8.47 26.6724,-24.22 -0.786,-15.77 -14.0396,-30.47 -29.5825,-32.79 -15.5235,-2.33 -27.4219,8.58 -26.5899,24.32 v 0 0" /><path
         id="path600"
         style="fill:#0f80cc;fill-opacity:1;fill-rule:nonzero;stroke:none"
         d="m 1778.36,2115.04 c -0.78,15.05 11.76,29.23 28.04,31.71 16.31,2.48 30.22,-7.71 31.07,-22.8 0.84,-15.11 -11.75,-29.36 -28.11,-31.81 -16.35,-2.45 -30.2,7.82 -31,22.9 v 0 0" /></g></g></svg>